<?xml version="1.0" encoding="utf-8"?>
<!-- Generator: Adobe Illustrator 16.0.0, SVG Export Plug-In . SVG Version: 6.00 Build 0)  -->
<!DOCTYPE svg PUBLIC "-//W3C//DTD SVG 1.1//EN" "http://www.w3.org/Graphics/SVG/1.1/DTD/svg11.dtd">
<svg version="1.1" id="Escudo" xmlns="http://www.w3.org/2000/svg" xmlns:xlink="http://www.w3.org/1999/xlink" x="0px" y="0px"
	 width="595.279px" height="841.891px" viewBox="0 0 595.279 841.891" enable-background="new 0 0 595.279 841.891"
	 xml:space="preserve">
<path id="Escudo_Base" fill="#FFFFFF" stroke="#000000" stroke-width="4" stroke-miterlimit="10" d="M93.832,434.062
	c-0.303-34.809,9.282-47.824,8.879-82.532c-0.303-17.657-9.182-42.679-23.004-61.344l8.071-16.647
	c8.677,5.044,19.17,1.312,23.105-3.431c2.926-3.531,6.86-12.41,3.127-21.793l17.455-8.778c15.235,14.73,41.67,33.9,68.811,36.927
	c28.855,3.229,52.566-3.43,71.636-14.529l25.728,34.304l24.72-34.304c20.38,11.906,47.723,17.858,70.424,14.832
	c23.711-3.127,51.558-18.464,70.224-37.129l17.454,10.19c-2.926,6.054-2.522,16.244,5.348,21.895
	c5.751,4.137,14.73,6.054,20.684,2.421l8.576,16.849c-11.401,15.336-19.978,34.204-21.793,50.75
	c-3.633,34.203,8.677,62.656,8.172,92.319c-12.107,0.303-24.315-0.403-24.215,15.134c0.102,15.135,14.227,16.446,24.82,15.639
	c-0.101,38.441-6.86,103.216-40.257,144.684c-32.388,40.258-97.263,51.457-139.033,68.205c-12.713,5.146-25.526,14.63-25.526,14.63
	s-12.813-8.173-33.598-17.152c-54.483-23.71-93.429-20.684-136.512-73.351c-25.829-31.58-34.506-94.538-33.9-136.511
	c16.95-0.303,25.526-5.549,24.618-16.647C117.038,437.996,110.682,433.355,93.832,434.062z"/>
<path id="Pi" fill="#55595B" d="M244.267,494.901c-7.87-11.401-8.071-27.646-5.448-42.175h-112.7
	c0,11.099-8.071,18.969-24.719,18.969c0,26.636,7.466,94.438,38.44,131.265c42.073,49.942,109.673,48.934,153.765,75.771v-153.36
	C282.304,524.766,254.861,510.237,244.267,494.901z M238.113,575.818c-8.576,7.567-24.215,4.238-28.251-7.365
	c-2.725-7.869-0.505-40.56,0.807-50.145h-20.985v31.277c0,9.585-8.375,27.545-17.657,31.58l-8.374-9.787
	c10.594-4.035,15.941-15.336,15.941-25.728v-28.049c-12.31,0-16.042,5.549-16.042,16.95l-10.292-2.32
	c0-16.547,9.585-24.114,25.829-24.114h57.006v10.09H220.96c0,0-0.505,37.835,0,42.376c0.807,7.063,7.265,10.392,17.152,5.045
	V575.818z"/>
<path id="Caliz" fill="#55595B" d="M505.484,291.598l-4.036-8.071c-7.869,1.917-18.665-2.321-23.508-7.265
	c-4.944-5.146-8.576-15.134-7.467-22.298l-7.769-4.338c-6.356,12.612-42.275,30.773-64.876,35.313
	c-22.701,4.541-57.813-1.009-73.854-11.401l-23.307,32.892v83.743c9.988,9.787,40.055,12.713,46.411,10.393l10.393,11.704
	c-2.522,3.43-4.339,10.392-4.238,17.556c0.102,10.594,1.716,10.19,1.413,16.849h112.498c0.807-12.712,14.932-22.096,25.021-19.473
	c0-27.342-8.777-45.301-8.879-71.837C483.186,333.368,492.266,306.732,505.484,291.598z M353.535,344.77h74.259
	c0,15.336-22.298,22.5-33.295,22.5v27.242c-2.926-0.404-6.054-0.707-9.081-1.11v-26.334
	C378.759,367.067,353.535,361.114,353.535,344.77z M370.385,421.449c0-6.76,5.953-9.181,15.033-9.181v-4.541
	c1.211,0.102,2.422,0.303,3.733,0.404c1.816,0.201,3.531,0.403,5.348,0.604v3.532c9.383,0,16.85,2.118,16.85,9.08h-40.964V421.449z
	 M419.42,421.449c-1.211,0.202-2.422-1.815-3.431-4.035c-3.632-7.87-13.923-11.502-24.315-12.512
	c-14.63-1.412-25.123-4.843-24.72-14.024c0.202-5.247,7.366-9.686,15.438-12.915v9.081c-3.027,1.11-5.55,2.32-5.751,4.137
	c-0.808,6.659,16.042,5.852,24.013,8.072c10.796,2.926,19.17,8.374,20.481,13.52C422.245,417.111,420.732,421.248,419.42,421.449z
	 M450.9,343.357c-1.312,20.481-16.144,31.176-37.836,37.129c-4.843,1.312-9.585,2.32-14.63,3.127v-10.19
	c1.009-0.101,1.11-0.202,1.614-0.202c27.343-4.338,39.147-13.722,38.845-30.369c-0.202-11.401-10.291-18.968-21.692-19.271
	c-15.639-0.504-19.675,5.65-25.627,10.089c-3.633,2.825-8.778,3.935-12.007,2.421c-2.623-1.21-3.128-3.632,1.211-8.677
	c4.641-5.448,14.831-14.933,36.423-14.933C436.673,312.483,451.908,328.021,450.9,343.357z M387.335,325.397
	c-1.312,0-2.32,1.009-2.32,2.321c0,1.312,1.009,2.32,2.32,2.32s2.321-1.009,2.321-2.32
	C389.656,326.406,388.546,325.397,387.335,325.397z"/>
<path id="Espiga" fill="#456A3E" d="M349.904,412.672l-5.146-6.155c-2.926,1.313-19.675,0.908-25.526-0.403
	c-5.448-1.312-17.858-6.457-21.592-10.695c-3.531,2.926-12.309,7.264-21.692,10.089c-6.255,1.917-17.354,3.027-26.938,1.514
	l-3.834,5.348c2.22,4.338,2.825,8.576,3.229,20.279c0.303,9.586-3.531,25.829-3.229,37.029
	c1.109,32.589,36.625,46.209,52.465,49.438c15.841-4.137,50.246-14.024,51.759-48.732c0.908-22.298-3.127-27.242-3.329-38.643
	C345.969,424.174,347.381,417.817,349.904,412.672z M293.1,415.9c0.908-2.018,2.522-1.816,2.725-3.935l1.109-13.621
	c0.101-0.808,1.211-0.808,1.312,0l1.009,13.318c0.404,2.623,1.816,2.724,2.825,4.137c1.312,1.917,1.413,6.659-0.303,8.677
	c-2.22,2.724-5.852,2.825-8.172,0.101C291.788,422.66,291.99,418.12,293.1,415.9z M287.752,425.385
	c1.211,1.312,2.22,0.403,5.65,2.623c3.431,2.32,4.237,4.036,4.237,4.036s1.11-2.119,3.229-3.633
	c3.633-2.623,4.339-1.312,6.256-2.825c0.908-0.706,6.054-11.4,7.567-14.528c0.302-0.605,1.21-0.303,1.009,0.403l-6.356,16.647
	c-0.505,3.229-1.211,6.155-5.246,7.87c-4.238,1.715-10.493,1.412-13.722-0.202c-4.439-2.22-5.55-6.255-6.054-7.869l-5.65-16.244
	c-0.202-0.707,0.706-1.11,1.109-0.505L287.752,425.385z M284.221,435.979c1.514,2.018,4.137,1.412,7.77,2.926
	c4.438,1.816,5.448,4.137,5.448,4.137s0.706-2.119,4.439-3.935c3.43-1.716,7.769-1.211,8.777-2.422l9.888-16.345
	c0.403-0.605,1.312-0.102,0.908,0.605l-9.081,16.95c-1.614,3.531-2.926,6.659-8.475,9.585c-4.439,2.32-9.888,1.715-13.822-0.303
	c-6.054-3.026-6.559-7.163-7.366-8.677l-9.888-16.85c-0.403-0.706,0.605-1.413,1.11-0.706L284.221,435.979z M286.541,448.994
	c1.11,1.009,1.816,0.303,5.751,1.815c4.844,1.917,5.247,4.036,5.247,4.036s1.312-2.825,4.339-4.036c2.926-1.109,4.943,0,7.364-2.22
	l15.034-19.573c0.504-0.605,1.412,0.101,1.009,0.706l-12.915,20.381c-1.614,2.926-1.211,4.944-6.054,7.365
	c-4.54,2.119-12.813,1.614-16.748,0.202c-5.045-1.816-5.045-5.348-6.154-6.861l-13.924-21.188c-0.403-0.605,0.505-1.312,1.009-0.706
	L286.541,448.994z M254.155,433.355c0.101-0.404,0.605-0.303,0.605,0c0.201,6.659,0.403,23.912,1.009,24.921
	c0.605,0.807,8.677,0.504,9.08,8.879c0.202,4.338-1.109,6.255-7.163,6.255c-4.843,0-5.751-3.732-6.356-10.997
	C251.027,458.982,253.246,440.418,254.155,433.355z M252.439,477.749c2.522,0.605,5.953,0.101,7.567-1.009
	c2.623-1.716,6.256-0.908,6.256-0.908s-0.808-2.522,0.807-5.247c1.11-1.917,1.514-3.329,1.01-5.347l-6.458-19.574
	c-0.101-0.504,0.505-0.706,0.707-0.303l8.677,18.464c1.211,2.825,3.531,5.045,3.229,8.879c-0.505,5.852-5.852,10.896-13.116,11.099
	C257.282,484.004,253.65,481.078,252.439,477.749z M268.986,492.682c-3.531-0.303-6.457-1.312-6.86-5.247
	c2.119-0.201,4.237-1.009,6.154-2.522c3.027-2.421,6.559-1.917,6.559-1.917s0-2.825,1.312-5.146s2.421-2.926,2.825-7.466
	c2.825,1.514,5.045,4.137,4.843,8.071C283.212,486.829,275.444,493.388,268.986,492.682z M315.7,509.732l-6.155,0.605l-9.887-7.163
	v11.603c0,0,0.201,1.514-2.522,1.514c-2.522,0-2.522-1.614-2.522-1.614v-11.502l-9.081,6.961l-5.146-1.412l12.208-9.686v-1.917
	l-4.438-2.725c-2.927,0.605-2.522,3.027-5.045,4.54c-2.422,1.413-7.467,1.11-10.292-2.926c2.019-0.403,4.844-2.018,6.054-3.834
	c1.816-2.421,6.861-2.32,6.861-2.32s-0.808-5.852,0.303-8.273c0.706-1.614,1.715-3.834,1.312-6.256
	c3.329,1.614,5.751,5.448,5.852,8.778c0,4.439-2.22,4.237-2.018,7.365l3.531,3.431v-22.5c-2.018-2.522-5.751,0.101-9.787-3.329
	c-2.623-2.22-2.926-6.458-4.943-9.585l-14.73-21.692c-0.404-0.605,0.403-1.211,0.907-0.707l18.565,21.895
	c1.614,1.917,3.732,0.908,7.264,1.715c3.633,0.908,5.853,5.348,5.853,5.348s2.32-4.035,5.549-5.246
	c3.431-1.312,6.559-0.707,8.677-3.027l16.749-20.684c0.504-0.504,1.312,0.102,0.908,0.707l-14.63,22.398
	c-2.22,3.229-1.614,5.146-4.742,8.273c-3.936,4.035-7.971,1.412-10.493,4.338V494.8l4.642-3.127
	c-0.202-2.725-2.119-2.825-2.22-6.155c-0.102-3.329,1.513-7.668,6.154-9.888c-0.808,1.816-0.605,5.247,0.303,6.356
	c2.32,3.128,1.009,8.476,1.009,8.476s4.338-1.009,5.953,1.614c1.21,1.917,3.229,3.229,6.154,4.035
	c-2.422,2.522-5.045,4.036-8.476,3.733c-3.632-0.403-4.237-5.045-6.962-5.348l-4.438,2.825v1.816L315.7,509.732z M325.588,492.682
	c-6.458,0.605-14.227-5.953-14.731-14.126c-0.201-3.935,1.917-6.558,4.844-8.071c0.403,4.54,1.513,5.146,2.825,7.467
	c1.312,2.32,1.312,5.146,1.312,5.146s3.531-0.505,6.558,1.917c1.917,1.513,4.036,2.32,6.154,2.522
	C332.045,491.37,329.22,492.379,325.588,492.682z M333.457,483.803c-7.264-0.303-12.611-5.247-13.116-11.099
	c-0.403-3.834,1.917-6.054,3.229-8.879l8.375-17.454c0.403-0.707,1.513-0.303,1.21,0.504l-6.658,18.363
	c-0.505,2.018-0.102,3.43,1.009,5.347c1.513,2.725,0.807,5.247,0.807,5.247s3.633-0.808,6.256,0.908
	c1.614,1.109,5.045,1.614,7.567,1.009C340.924,481.078,337.393,484.004,333.457,483.803z M343.244,462.514
	c-0.706,7.265-1.614,10.998-6.356,10.998c-6.054,0-7.365-1.917-7.163-6.256c0.403-8.273,8.576-7.971,9.08-8.879
	c0.605-0.908,0.706-17.253,0.908-24.215c0-0.605,0.807-0.605,0.908-0.101C341.63,441.527,343.547,459.285,343.244,462.514z"/>
<path id="Balanza" fill="#A61B30" d="M223.987,384.118v-41.367l-13.62,41.367H223.987z M160.423,384.118v-40.156l-12.915,40.156
	H160.423z M166.477,384.118h12.914l-12.914-41.669V384.118z M271.105,273.235c-16.042,10.392-51.153,16.042-73.855,11.401
	c-22.701-4.54-58.619-22.701-64.976-35.313l-7.77,4.338c1.11,7.164-2.522,17.253-7.466,22.298
	c-4.843,4.944-15.639,9.182-23.509,7.265l-4.036,8.071c13.218,15.134,22.298,41.771,22.197,63.867
	c-0.101,26.535-8.979,44.495-8.879,71.837c10.19-2.624,24.315,6.558,25.022,19.674h112.498c-0.303-7.063,1.312-6.356,1.412-16.95
	c0.101-7.163-1.614-14.327-4.237-17.757L248,400.262c6.356,2.32,36.423-0.605,46.512-10.392v-83.743L271.105,273.235z
	 M225.803,398.95c-14.327,0-26.031-5.953-26.031-13.217c0-0.605,0.102-1.615,0.202-1.615h4.54l18.464-56.198
	c-5.549-1.312-12.007-2.119-18.867-2.421c-1.11,4.036-4.843,7.063-9.384,7.063c-4.338,0-7.971-2.825-9.282-6.76
	c-6.255,0.504-12.41,1.312-17.858,2.421l17.556,55.795h4.742c0.102,0,0.202,1.009,0.202,1.614c0,7.365-11.603,13.217-26.031,13.217
	c-14.428,0-26.03-5.952-26.03-13.217c0-0.605,0.101-1.614,0.201-1.614h3.229l17.657-53.575c-1.009,0.303-1.917,0.706-2.825,1.009
	l-3.229-5.953c5.852-4.137,18.867-6.659,32.992-7.366c1.614-3.026,4.843-5.044,8.576-5.044c3.633,0,6.861,2.018,8.576,5.044
	c14.227,0.707,27.241,3.128,33.194,7.366l-3.329,5.953c-0.707-0.403-1.413-0.706-2.22-1.009l16.85,53.575h3.632
	c0.101,0,0.202,1.009,0.202,1.614C251.733,393.098,240.13,398.95,225.803,398.95z M229.031,384.118h13.016l-13.016-39.854V384.118z"
	/>
<path fill="#A61B30" d="M397.526,507.21v59.629l6.054-8.879v-48.833c0-0.101-0.605-0.101-0.908-0.201
	C401.057,508.521,399.544,507.917,397.526,507.21z M388.446,579.754l5.045-6.861v-67.7c-1.01-0.808-3.027-1.816-5.045-2.825V579.754
	z M380.072,494.094c-0.303,14.933-7.669,24.114-8.375,40.358c-0.706,14.428,4.238,33.093,12.813,42.477v-78.093
	C382.795,497.424,381.281,495.81,380.072,494.094z M408.624,551.2l4.036-6.356v-34.909c-1.009,0-2.623-0.101-4.036-0.202V551.2z
	 M468.656,452.727H355.957c2.623,14.529,2.119,30.773-5.65,42.175c-10.694,15.336-37.533,29.864-49.64,30.47v153.36
	c44.394-26.938,111.892-25.93,153.965-75.771c31.076-36.827,38.644-104.729,38.644-131.265
	C476.729,471.695,468.656,463.825,468.656,452.727z M444.442,514.575l-53.979,85.458h-13.924l-3.632-6.457
	c4.339-3.229,4.944-8.576,1.917-15.033c-2.119-4.439-13.52-21.087-12.914-39.651c0.706-22.702,8.374-29.865,9.383-38.644
	c0.403-3.632-0.202-6.961-1.917-9.181l3.935-6.054h9.081c4.237,5.347,13.923,14.428,21.894,16.244
	c14.126,3.229,18.565,0,29.059-2.119C442.827,497.222,449.184,507.21,444.442,514.575z M416.696,538.689l6.054-7.567v-21.995
	c-2.018,0.303-4.035,0.505-6.054,0.605V538.689z M428.299,507.614c-0.403,0.201-1.009,0.403-1.514,0.504v16.647l6.861-9.988
	C439.599,506.504,432.637,505.898,428.299,507.614z"/>
<g id="Hojas_Izquierda">
	<g id="Hojas_1">
		<path fill="#94B43B" stroke="#456A3E" stroke-width="4" stroke-miterlimit="10" d="M141.757,235.803
			c13.419,2.22,27.746,10.594,32.993,21.188c11.603-11.704,8.374-30.47-9.787-35.818c28.554-34.809,34.405-95.446,12.813-120.065
			c-18.867-21.491-53.676-13.621-53.676,9.283c0,22.903,30.975,24.517,32.992,11.401l-0.403-0.707
			c-5.348,2.422-11.502-0.605-10.997-6.255c0.303-3.531,2.522-4.944,5.347-4.944c4.339-0.101,6.256,2.522,6.356,8.173
			c0.102,24.114-33.295,46.412-32.992,71.938C124.807,219.861,136.41,232.07,141.757,235.803z"/>
		<path fill="#456A3E" d="M149.324,237.619c0.303-0.908,0.403-1.917,0.403-2.926c0-5.852-4.742-10.594-10.594-10.594
			c-2.22,0-4.338,0.706-6.054,1.917c3.128,5.146,6.457,8.172,8.677,9.686C144.28,236.207,146.802,236.812,149.324,237.619z"/>
		<g>
			<path fill="#456A3E" d="M136.41,227.529c0,0,0-0.303,0-1.009c0-0.605,0-1.514,0-2.724c0-2.321,0-5.65,0.201-9.686
				c0.102-1.009,0.102-2.018,0.202-3.128c0.101-1.109,0.201-2.22,0.201-3.329c0.102-1.11,0.202-2.321,0.303-3.532
				c0.202-1.21,0.303-2.421,0.505-3.632c0.202-1.211,0.403-2.522,0.605-3.733c0.303-1.312,0.504-2.522,0.908-3.834
				c0.303-1.312,0.706-2.623,1.211-3.834c0.201-0.605,0.403-1.312,0.706-1.917l0.908-1.917c1.21-2.421,2.623-4.641,3.834-6.861
				c1.21-2.22,2.522-4.439,3.732-6.659c2.321-4.338,4.541-8.374,6.256-11.905c1.816-3.532,3.128-6.559,4.036-8.677
				c0.504-1.009,0.807-1.917,1.009-2.522c0.201-0.605,0.303-0.908,0.303-0.908s-0.102,0.303-0.303,0.908
				c-0.202,0.605-0.403,1.413-0.808,2.522c-0.706,2.22-1.917,5.247-3.531,8.879c-1.514,3.632-3.431,7.87-5.549,12.309
				c-1.11,2.22-2.119,4.54-3.33,6.861c-1.109,2.321-2.32,4.742-3.43,7.063l-0.707,1.715c-0.201,0.605-0.403,1.211-0.504,1.816
				c-0.404,1.21-0.605,2.421-0.908,3.632c-0.303,1.211-0.403,2.522-0.605,3.733c-0.202,1.21-0.303,2.421-0.403,3.632
				c-0.102,1.211-0.202,2.422-0.202,3.532c0,1.21-0.101,2.32-0.101,3.43s0,2.22,0,3.229c0,1.009,0,2.018,0,3.027
				c0.101,3.935,0.201,7.164,0.403,9.383c0.101,1.11,0.202,2.018,0.202,2.624c0.101,0.605,0.101,0.908,0.101,0.908L136.41,227.529z"
				/>
		</g>
		<g>
			<path fill="#456A3E" d="M140.95,227.731c0,0,0.201-0.404,0.706-1.11c0.403-0.706,1.11-1.715,1.917-3.026
				c1.614-2.624,3.935-6.559,6.559-11.2c1.312-2.32,2.724-4.944,4.137-7.668c1.412-2.724,2.926-5.65,4.338-8.677
				c1.413-3.027,2.926-6.155,4.339-9.383c1.412-3.229,2.825-6.558,4.035-9.888c0.707-1.715,1.211-3.33,1.917-5.045
				c0.605-1.715,1.11-3.33,1.716-5.045c1.109-3.329,2.018-6.659,2.825-9.988c0.403-1.614,0.807-3.229,1.109-4.843
				c0.202-0.808,0.303-1.615,0.505-2.321c0.101-0.807,0.201-1.513,0.403-2.321c0.101-0.807,0.202-1.513,0.403-2.22
				c0.102-0.706,0.202-1.513,0.202-2.22c0.101-0.706,0.202-1.412,0.202-2.119c0-0.706,0.101-1.413,0.101-2.018
				c0-0.707,0.101-1.312,0.101-2.018c0-0.605,0-1.312,0-1.917c0-1.211,0-2.421-0.101-3.531s-0.202-2.119-0.202-3.027
				c-0.101-0.908-0.303-1.816-0.403-2.624c-0.101-0.403-0.101-0.807-0.202-1.11c-0.101-0.302-0.201-0.706-0.201-0.908
				c-0.102-0.605-0.303-1.11-0.404-1.514c-0.201-0.807-0.302-1.21-0.302-1.21s0.101,0.403,0.403,1.21
				c0.101,0.404,0.303,0.908,0.403,1.514c0.101,0.303,0.202,0.605,0.303,0.908c0.101,0.303,0.101,0.707,0.202,1.11
				c0.201,0.807,0.303,1.614,0.504,2.522c0.102,0.908,0.202,2.018,0.403,3.027c0.202,1.11,0.202,2.22,0.202,3.531
				c0,0.605,0.101,1.211,0.101,1.917c0,0.605,0,1.312,0,2.018s0,1.413,0,2.119c0,0.707-0.101,1.413-0.101,2.119
				c0,0.707-0.101,1.514-0.101,2.22c-0.102,0.707-0.202,1.514-0.303,2.321c-0.102,0.807-0.202,1.513-0.303,2.321
				c-0.101,0.807-0.202,1.614-0.403,2.421c-0.202,1.614-0.605,3.229-0.908,4.944c-0.706,3.33-1.514,6.76-2.422,10.19
				c-0.504,1.715-1.009,3.43-1.514,5.146c-0.604,1.715-1.109,3.431-1.715,5.146c-1.211,3.431-2.422,6.861-3.733,10.19
				s-2.623,6.558-3.935,9.686s-2.725,6.155-4.036,8.979c-1.312,2.825-2.623,5.449-3.834,7.87c-2.421,4.843-4.54,8.878-6.154,11.704
				c-0.808,1.413-1.412,2.522-1.816,3.229c-0.403,0.707-0.706,1.11-0.706,1.11L140.95,227.731z"/>
		</g>
		<g>
			<path fill="#456A3E" d="M144.582,230.052c0,0,0.102,0,0.303-0.101c0.202-0.101,0.505-0.101,0.908-0.202
				c0.706-0.202,1.715-0.303,2.926-0.403c0.605,0,1.312-0.101,1.917-0.101c0.706,0,1.413-0.101,2.22,0
				c0.706,0,1.514,0.101,2.32,0.101c0.808,0.101,1.614,0.202,2.422,0.403s1.614,0.303,2.32,0.605
				c0.707,0.303,1.514,0.504,2.119,0.807c0.706,0.303,1.312,0.605,1.917,1.009c0.605,0.404,1.109,0.707,1.614,1.11
				c0.403,0.404,0.908,0.707,1.211,1.009c0.303,0.302,0.605,0.605,0.807,0.908c0.505,0.505,0.707,0.807,0.707,0.807
				s-0.303-0.202-0.908-0.605c-0.303-0.202-0.605-0.404-1.009-0.707c-0.404-0.202-0.908-0.403-1.413-0.706
				c-0.504-0.303-1.109-0.504-1.614-0.707c-0.605-0.202-1.211-0.403-1.917-0.504c-0.706-0.202-1.412-0.202-2.119-0.303
				c-0.706-0.101-1.412-0.101-2.118-0.101s-1.413,0.101-2.119,0.101c-0.706,0.101-1.412,0.202-2.018,0.303
				c-0.706,0.101-1.312,0.303-1.917,0.404c-0.605,0.101-1.11,0.303-1.614,0.504c-1.009,0.303-1.816,0.706-2.422,0.908
				c-0.303,0.101-0.504,0.202-0.605,0.303c-0.101,0.101-0.201,0.101-0.201,0.101L144.582,230.052z"/>
		</g>
		<circle fill="#456A3E" cx="151.444" cy="115.839" r="5.448"/>
	</g>
	<g id="Hojas_2">
		<path fill="#94B43B" stroke="#456A3E" stroke-width="4" stroke-miterlimit="10" d="M95.346,260.623
			c35.313-35.616,12.107-97.162-16.043-98.978c1.514,13.116-2.521,25.526-6.154,33.901c-1.816,4.036-4.742,18.968-2.522,26.031
			c-7.971-14.125-30.47-15.941-40.762-12.41c-3.935,14.428,8.98,35.515,22.903,41.669c-9.988,1.009-16.445,13.117-21.49,14.529
			c-2.623,0.706-6.559,0.101-6.861-3.431c-0.201-2.724,1.514-4.237,3.531-4.338c1.413-0.101,4.742,1.21,4.844,4.036h0.604
			c2.119-18.968-30.772-8.778-27.039,12.612c2.32,13.52,11.502,19.876,30.772,16.648C60.537,287.158,77.588,260.825,95.346,260.623z
			"/>
		<path fill="#456A3E" d="M100.996,254.065c-1.918-2.22-4.742-3.632-7.87-3.632c-5.751,0-10.393,4.641-10.393,10.392
			c0,1.211,0.202,2.321,0.605,3.431c4.036-2.119,8.071-3.532,12.007-3.632C97.464,258.504,99.281,256.285,100.996,254.065z"/>
		<g>
			<path fill="#456A3E" d="M94.034,253.157c0,0,0.101-0.303,0.201-0.707c0.102-0.504,0.202-1.21,0.404-2.119
				c0.201-0.908,0.403-2.018,0.604-3.33c0.202-1.312,0.404-2.724,0.707-4.338c0.201-1.614,0.504-3.33,0.706-5.146
				s0.504-3.733,0.605-5.751c0.101-1.009,0.201-2.018,0.303-3.027c0.101-1.009,0.101-2.119,0.201-3.128
				c0.202-2.119,0.202-4.237,0.202-6.457c0.101-2.119,0-4.339,0-6.458c-0.101-2.119-0.202-4.237-0.403-6.255
				c-0.202-2.018-0.404-3.935-0.706-5.751c-0.303-1.816-0.605-3.531-0.908-5.146c-0.404-1.614-0.808-3.027-1.11-4.339
				c-0.101-0.303-0.201-0.605-0.201-0.908c-0.102-0.303-0.202-0.605-0.303-0.807c-0.202-0.505-0.404-1.009-0.505-1.514
				c-0.706-1.816-1.009-2.825-1.009-2.825s0.403,1.009,1.211,2.725c0.201,0.403,0.403,0.908,0.605,1.412
				c0.101,0.303,0.201,0.505,0.403,0.807c0.101,0.303,0.201,0.605,0.303,0.908c0.403,1.312,0.908,2.724,1.412,4.238
				c0.403,1.614,0.808,3.329,1.312,5.146c0.404,1.816,0.707,3.834,1.11,5.852c0.303,2.018,0.605,4.137,0.807,6.255
				c0.202,2.119,0.404,4.338,0.505,6.558s0.202,4.439,0.202,6.558c0,1.11,0,2.119,0,3.229c0,1.11,0,2.119,0,3.128
				c0,2.018-0.102,4.036-0.202,5.953s-0.202,3.632-0.303,5.348c-0.101,1.614-0.303,3.127-0.403,4.54
				c-0.102,1.312-0.303,2.522-0.404,3.431c-0.101,1.009-0.201,1.715-0.303,2.22c-0.101,0.504-0.101,0.807-0.101,0.807
				L94.034,253.157z"/>
		</g>
		<g>
			<path fill="#456A3E" d="M89.393,254.267c0,0-0.605-2.825-1.312-7.063c-0.706-4.238-1.614-9.787-2.422-15.437
				c-0.403-2.825-0.706-5.65-1.009-8.273c-0.303-2.624-0.504-5.146-0.706-7.265c-0.202-2.119-0.303-3.834-0.403-5.146
				c-0.102-1.21-0.102-1.917-0.102-1.917s0.102,0.707,0.303,1.917c0.202,1.211,0.505,2.926,0.908,5.045
				c0.404,2.119,0.908,4.54,1.514,7.063c0.605,2.624,1.211,5.347,1.917,8.072c1.312,5.448,2.825,10.896,4.036,14.932
				c1.21,4.036,2.118,6.659,2.118,6.659L89.393,254.267z"/>
		</g>
		<g>
			<path fill="#456A3E" d="M86.467,257.293c0,0-0.505-0.707-1.412-1.816c-0.908-1.211-2.22-2.825-3.835-4.742
				c-1.614-1.917-3.531-4.238-5.549-6.558c-1.009-1.211-2.119-2.421-3.229-3.632c-1.11-1.211-2.32-2.421-3.431-3.632
				c-1.109-1.21-2.421-2.421-3.531-3.531c-1.211-1.211-2.421-2.22-3.531-3.33c-1.211-1.11-2.32-2.018-3.431-2.926
				c-1.109-0.908-2.22-1.715-3.229-2.522s-2.018-1.413-2.825-1.917c-0.807-0.605-1.614-1.009-2.32-1.413
				c-1.312-0.706-2.018-1.11-2.018-1.11s0.807,0.303,2.118,0.908c0.707,0.303,1.514,0.706,2.422,1.21s1.917,1.009,3.026,1.715
				c1.11,0.706,2.321,1.413,3.531,2.22c1.211,0.807,2.522,1.715,3.733,2.724c1.312,1.009,2.623,1.917,3.936,3.027
				c1.312,1.11,2.623,2.119,3.935,3.229s2.623,2.22,3.834,3.33s2.422,2.22,3.632,3.33c2.321,2.22,4.439,4.338,6.256,6.155
				c1.816,1.816,3.229,3.43,4.339,4.54c1.009,1.11,1.614,1.715,1.614,1.715L86.467,257.293z"/>
		</g>
		<g>
			<path fill="#456A3E" d="M85.357,258.706c0,0-2.118-0.908-5.146-2.522c-1.513-0.807-3.229-1.715-5.146-2.825
				c-0.908-0.504-1.816-1.11-2.825-1.715c-0.908-0.605-1.917-1.211-2.825-1.816c-1.917-1.211-3.732-2.522-5.448-3.834
				c-0.807-0.605-1.715-1.312-2.421-1.917s-1.514-1.211-2.119-1.715c-0.605-0.605-1.211-1.11-1.715-1.513
				c-0.505-0.504-0.908-0.908-1.312-1.211c-0.707-0.706-1.11-1.11-1.11-1.11s0.403,0.404,1.211,1.009
				c0.403,0.303,0.807,0.706,1.412,1.109c0.505,0.404,1.211,0.908,1.816,1.413c0.706,0.504,1.413,1.009,2.22,1.615
				c0.808,0.605,1.614,1.109,2.522,1.614c1.816,1.11,3.733,2.22,5.65,3.329c1.009,0.605,2.018,1.009,2.926,1.615
				c1.009,0.504,1.917,1.009,2.926,1.413c1.917,0.908,3.733,1.715,5.246,2.32c3.128,1.312,5.146,2.018,5.146,2.018L85.357,258.706z"
				/>
		</g>
		<g>
			<path fill="#456A3E" d="M85.659,262.54c0,0-0.201,0-0.706-0.101c-0.403-0.101-1.109-0.101-1.917-0.202
				c-0.807-0.101-1.917-0.202-3.026-0.202c-1.211,0-2.522,0-3.936,0c-0.706,0-1.513,0.101-2.32,0.101
				c-0.807,0.101-1.614,0.202-2.422,0.303c-0.807,0.101-1.715,0.303-2.521,0.404c-0.908,0.202-1.716,0.403-2.624,0.605
				c-1.815,0.504-3.632,1.009-5.347,1.715c-0.908,0.303-1.816,0.707-2.624,1.11l-1.312,0.605l-1.312,0.707
				c-1.715,0.908-3.329,2.119-4.943,3.229c-1.614,1.21-3.229,2.32-4.844,3.43c-1.614,1.009-3.229,1.917-4.843,2.624
				c-1.614,0.706-3.128,1.312-4.54,1.816c-2.926,0.908-5.448,1.11-7.265,1.11c-0.908,0-1.614-0.101-2.018-0.101
				c-0.505,0-0.706-0.101-0.706-0.101s0.201,0,0.706,0c0.504,0,1.109,0.101,2.018,0c1.716-0.101,4.237-0.504,7.063-1.514
				c1.413-0.504,2.825-1.21,4.339-2.018s3.026-1.816,4.54-2.926s3.027-2.32,4.439-3.632c1.514-1.211,3.128-2.624,4.944-3.632
				l1.312-0.807l1.312-0.707c0.908-0.504,1.816-1.009,2.724-1.413c1.816-0.908,3.733-1.513,5.55-2.119
				c0.908-0.303,1.816-0.504,2.724-0.807c0.908-0.202,1.816-0.403,2.624-0.605c0.907-0.101,1.715-0.303,2.521-0.403
				c0.808-0.101,1.615-0.202,2.422-0.303c1.514-0.202,2.926-0.303,4.237-0.303s2.321,0,3.33,0c0.908,0,1.614,0.101,2.118,0.101
				c0.505,0,0.808,0.101,0.808,0.101L85.659,262.54z"/>
		</g>
		<circle fill="#456A3E" cx="28.856" cy="262.136" r="3.733"/>
	</g>
	<g id="Hojas_3_1_">
		<path fill="#94B43B" stroke="#456A3E" stroke-width="4" stroke-miterlimit="10" d="M68.609,289.075
			c-0.808,11.906,24.215,31.277,23.307,67.095c-0.706,30.167-20.986,57.208-37.23,66.086c9.081-22.096-14.528-52.566-12.41-85.357
			C43.889,314.097,51.86,299.669,68.609,289.075z"/>
		<path fill="#456A3E" d="M68.609,289.075c-3.632,2.321-6.962,4.843-9.787,7.567c1.716,2.623,4.642,4.439,7.971,4.439
			c1.917,0,3.733-0.605,5.247-1.514C69.82,295.432,68.406,292.001,68.609,289.075z"/>
		<g>
			<path fill="#456A3E" d="M65.481,298.257c0,0,0,0.101-0.101,0.202c-0.102,0.101-0.202,0.303-0.303,0.605
				c-0.202,0.504-0.605,1.312-1.009,2.421c-0.404,1.11-0.808,2.421-1.211,4.036c-0.202,0.807-0.403,1.615-0.605,2.522
				c-0.202,0.908-0.403,1.917-0.605,2.825c-0.101,0.504-0.202,1.009-0.303,1.513c-0.101,0.505-0.201,1.11-0.201,1.615
				c-0.202,1.11-0.303,2.22-0.505,3.43c-0.101,1.211-0.202,2.421-0.403,3.632c-0.102,0.605-0.102,1.211-0.202,1.917
				c0,0.605-0.101,1.312-0.101,1.917c-0.102,1.312-0.102,2.623-0.202,3.935c0,1.312,0,2.724-0.101,4.036
				c0,1.312-0.102,2.724,0,4.137c0,1.413,0.101,2.724,0.101,4.137c0,2.724,0.303,5.549,0.403,8.273
				c0.102,1.312,0.202,2.724,0.303,4.036c0.102,1.312,0.303,2.624,0.404,3.935c0.303,2.623,0.504,5.044,0.907,7.466
				c0.303,2.32,0.707,4.641,1.01,6.659c0.303,2.018,0.604,3.935,0.907,5.65s0.605,3.127,0.808,4.338
				c0.403,2.421,0.706,3.733,0.706,3.733s-0.303-1.312-0.807-3.733c-0.303-1.211-0.605-2.623-1.01-4.238
				c-0.403-1.614-0.807-3.531-1.21-5.549c-0.404-2.018-0.808-4.238-1.312-6.659c-0.505-2.321-0.808-4.843-1.211-7.466
				c-0.202-1.312-0.403-2.623-0.605-3.935c-0.202-1.312-0.303-2.724-0.505-4.036c-0.303-2.724-0.706-5.549-0.807-8.273
				c-0.102-1.413-0.202-2.825-0.303-4.137c-0.102-1.413-0.102-2.825-0.202-4.137c0-1.413-0.101-2.724-0.101-4.137
				c0-1.312,0-2.724,0-4.036c0-0.707,0-1.312,0-1.917s0.101-1.312,0.101-1.917c0.101-1.312,0.101-2.522,0.202-3.733
				c0.101-1.21,0.201-2.421,0.303-3.531c0.101-0.605,0.101-1.11,0.201-1.715c0.102-0.504,0.202-1.109,0.202-1.614
				c0.202-1.009,0.303-2.018,0.505-3.027c0.201-0.908,0.403-1.816,0.504-2.724c0.403-1.715,0.706-3.229,1.11-4.439
				c0.303-1.21,0.706-2.119,1.009-2.825c0.101-0.303,0.303-0.605,0.303-0.807c0.101-0.202,0.101-0.202,0.101-0.202L65.481,298.257z"
				/>
		</g>
		<g>
			<path fill="#456A3E" d="M69.012,297.853c0,0,1.009,4.641,2.119,11.502c0.303,1.715,0.605,3.632,0.908,5.549
				c0.303,2.018,0.605,4.036,0.908,6.256c0.302,2.119,0.504,4.439,0.807,6.659c0.303,2.321,0.403,4.641,0.706,6.962
				c0.202,2.321,0.303,4.641,0.505,6.962c0.101,2.32,0.201,4.54,0.303,6.76c0,2.22,0.101,4.238,0,6.255
				c-0.101,2.018-0.101,3.935-0.202,5.65c-0.101,1.715-0.201,3.33-0.303,4.742c-0.101,1.412-0.303,2.623-0.403,3.632
				c-0.202,2.018-0.403,3.128-0.403,3.128s0.101-1.11,0.201-3.229c0-1.009,0.202-2.22,0.202-3.632s0-3.027,0.101-4.742
				c0-1.715-0.101-3.632-0.101-5.549c-0.101-2.018-0.202-4.036-0.403-6.255c-0.102-2.119-0.404-4.338-0.605-6.659
				c-0.303-2.22-0.505-4.54-0.808-6.861c-0.303-2.32-0.605-4.54-1.009-6.861c-0.403-2.22-0.706-4.439-1.109-6.558
				c-0.404-2.119-0.808-4.137-1.211-6.154c-0.403-1.917-0.808-3.733-1.211-5.449c-1.514-6.76-2.725-11.199-2.725-11.199
				L69.012,297.853z"/>
		</g>
	</g>
	<g id="Hojas_4_1_">
		<path fill="#94B43B" stroke="#456A3E" stroke-width="4" stroke-miterlimit="10" d="M82.23,418.826
			c-1.211,5.65-23.711,24.72-39.955,23.812s-18.767-9.687-18.665-13.218c0.101-3.531,2.522-6.255,5.65-6.659
			c3.43-0.504,7.264,1.313,6.961,4.036c-0.303,2.725-4.843,5.65-10.493,3.531l-0.303,0.908c16.144,6.559,19.474-16.042,1.514-16.042
			c-13.62,0-23.508,14.528-23.508,30.672c0,16.95,13.217,37.836,37.432,36.322C90.503,478.96,84.752,423.468,82.23,418.826z"/>
		<path fill="#456A3E" d="M75.772,426.897v0.102c0,5.347,3.128,9.988,7.668,12.208c1.11-10.19-0.303-18.666-1.21-20.381
			C81.825,420.541,79.405,423.568,75.772,426.897z"/>
		<g>
			<path fill="#456A3E" d="M82.128,433.557c0,0-0.101,0.303-0.303,0.808c-0.101,0.303-0.201,0.605-0.403,1.009
				s-0.403,0.908-0.605,1.412c-0.201,0.505-0.504,1.11-0.807,1.716s-0.707,1.211-1.11,1.917s-0.807,1.412-1.312,2.118
				c-0.504,0.707-1.009,1.514-1.614,2.22c-1.109,1.514-2.522,3.128-3.935,4.642c-1.514,1.614-3.128,3.128-4.944,4.642
				c-1.816,1.513-3.834,2.926-5.952,4.237c-2.119,1.312-4.339,2.421-6.659,3.329c-2.321,0.908-4.742,1.614-7.164,2.019
				c-2.421,0.403-4.843,0.604-7.265,0.303c-2.32-0.202-4.54-0.605-6.558-1.413c-2.019-0.706-3.834-1.614-5.448-2.623
				c-1.514-1.009-2.926-2.018-4.036-3.027c-0.303-0.201-0.605-0.504-0.807-0.706c-0.202-0.201-0.505-0.504-0.707-0.706
				c-0.403-0.505-0.908-0.908-1.21-1.211c-0.707-0.807-1.211-1.412-1.615-1.917c-0.403-0.403-0.604-0.706-0.604-0.706
				s0.201,0.202,0.604,0.605c0.404,0.403,1.01,1.009,1.716,1.816c0.403,0.302,0.807,0.706,1.312,1.21
				c0.202,0.202,0.505,0.404,0.706,0.707c0.303,0.201,0.605,0.403,0.808,0.604c1.109,0.908,2.522,1.816,4.137,2.725
				c1.614,0.807,3.329,1.614,5.347,2.119c1.917,0.605,4.137,0.907,6.356,0.907c2.22,0.102,4.541-0.302,6.761-0.706
				c2.22-0.504,4.438-1.312,6.658-2.32c2.119-1.009,4.137-2.22,6.054-3.531s3.633-2.825,5.247-4.237
				c1.614-1.514,3.026-3.027,4.339-4.642c1.312-1.514,2.421-3.128,3.329-4.54c0.505-0.706,0.908-1.413,1.312-2.119
				s0.706-1.312,1.11-2.018c0.302-0.605,0.604-1.211,0.807-1.816c0.202-0.504,0.505-1.009,0.605-1.514
				c0.202-0.403,0.303-0.807,0.403-1.21c0.102-0.404,0.202-0.707,0.303-1.01c0.202-0.504,0.303-0.807,0.303-0.807L82.128,433.557z"
				/>
		</g>
		<ellipse fill="#456A3E" cx="30.269" cy="427.201" rx="5.347" ry="3.43"/>
	</g>
	<g id="Hojas_5_1_">
		<path fill="#94B43B" stroke="#456A3E" stroke-width="4" stroke-miterlimit="10" d="M79.707,480.473
			c4.943,19.775,7.265,34.002,1.815,55.089c-5.952,22.701-33.093,39.45-44.999,68.71c-20.078-19.17-17.151-56.905-8.979-72.745
			C45.201,497.524,71.635,490.865,79.707,480.473z"/>
		<path fill="#456A3E" d="M79.707,480.473c-2.623,3.431-7.265,6.356-12.915,10.09c2.623,4.944,7.77,8.374,13.722,8.374
			c1.009,0,2.019-0.101,2.926-0.303C82.633,492.883,81.322,486.931,79.707,480.473z"/>
		<g>
			<path fill="#456A3E" d="M75.772,494.194c0,0-0.201,0.202-0.706,0.605c-0.403,0.404-1.109,1.01-1.917,1.816
				c-0.807,0.808-1.816,1.816-2.825,3.027c-1.109,1.21-2.32,2.521-3.531,4.035c-1.312,1.514-2.623,3.229-4.035,5.045
				c-1.413,1.816-2.825,3.733-4.238,5.751c-0.706,1.009-1.412,2.119-2.118,3.128c-0.707,1.109-1.413,2.119-2.119,3.329
				c-0.706,1.11-1.412,2.22-2.018,3.431c-0.707,1.11-1.312,2.32-1.917,3.531s-1.312,2.32-1.917,3.531s-1.11,2.422-1.716,3.633
				c-0.504,1.21-1.211,2.32-1.614,3.531c-0.504,1.211-1.009,2.421-1.412,3.531c-0.404,1.211-1.009,2.32-1.312,3.431
				c-0.404,1.109-0.707,2.32-1.11,3.329c-0.403,1.109-0.706,2.119-1.109,3.229c-0.303,1.009-0.505,2.018-0.808,3.027
				c-0.504,1.917-1.009,3.732-1.312,5.347s-0.505,3.027-0.706,4.137c-0.403,2.321-0.605,3.633-0.605,3.633s0.202-1.312,0.403-3.633
				c0.102-1.211,0.303-2.623,0.505-4.237c0.303-1.614,0.605-3.431,1.009-5.448c0.202-1.009,0.403-2.018,0.605-3.128
				c0.303-1.009,0.605-2.119,0.908-3.229c0.303-1.11,0.605-2.32,0.908-3.431c0.302-1.211,0.807-2.32,1.109-3.531
				c0.403-1.211,0.808-2.421,1.211-3.632s1.009-2.422,1.412-3.733c0.505-1.211,1.009-2.522,1.514-3.733
				c0.605-1.21,1.109-2.421,1.715-3.732c0.605-1.211,1.11-2.522,1.816-3.633c0.605-1.211,1.312-2.421,1.917-3.531
				c0.605-1.211,1.312-2.32,1.917-3.431c0.706-1.109,1.312-2.22,2.018-3.329c1.413-2.119,2.624-4.237,4.036-6.154
				c1.312-1.917,2.623-3.733,3.834-5.348s2.422-3.128,3.431-4.439c1.109-1.312,2.018-2.422,2.825-3.329
				c0.807-0.908,1.412-1.615,1.917-2.119c0.403-0.505,0.706-0.706,0.706-0.706L75.772,494.194z"/>
		</g>
		<g>
			<path fill="#456A3E" d="M80.716,494.901c0,0-0.101,0.303-0.101,0.807c-0.102,0.605-0.303,1.312-0.505,2.32
				c-0.202,1.01-0.505,2.22-0.908,3.532c-0.303,1.312-0.807,2.824-1.312,4.54c-0.505,1.614-1.109,3.431-1.816,5.246
				c-0.605,1.816-1.412,3.733-2.22,5.751c-0.807,2.019-1.715,3.936-2.522,6.054c-0.907,2.019-1.917,4.036-2.926,6.054
				c-1.009,2.019-2.018,4.036-3.128,5.953c-1.109,1.917-2.118,3.834-3.127,5.65c-1.11,1.815-2.119,3.531-3.128,5.246
				c-1.009,1.614-2.018,3.128-2.926,4.642c-0.908,1.412-1.716,2.724-2.522,3.834c-0.808,1.109-1.413,2.118-2.019,2.926
				c-1.109,1.614-1.715,2.522-1.715,2.522s0.605-1.009,1.614-2.623c0.505-0.808,1.11-1.917,1.816-3.027
				c0.706-1.211,1.412-2.522,2.22-4.036c0.807-1.513,1.715-3.026,2.623-4.741c0.908-1.716,1.816-3.532,2.725-5.449
				c0.907-1.917,1.815-3.834,2.724-5.852s1.715-4.036,2.623-6.154c0.808-2.019,1.614-4.137,2.422-6.154
				c0.706-2.119,1.514-4.137,2.119-6.055c0.604-2.018,1.21-3.935,1.715-5.751c0.505-1.815,0.908-3.531,1.412-5.146
				c0.404-1.614,0.707-3.127,0.908-4.439c0.303-1.312,0.403-2.421,0.605-3.43c0.101-0.908,0.202-1.716,0.303-2.119
				c0.101-0.505,0.101-0.706,0.101-0.706L80.716,494.901z"/>
		</g>
	</g>
	<g id="Hojas_6">
		<path fill="#94B43B" stroke="#456A3E" stroke-width="4" stroke-miterlimit="10" d="M96.254,559.272
			c6.558,27.746,14.932,63.967,40.055,69.718c-12.208,16.749-44.696,15.438-51.658-7.769c-4.137,19.473-9.988,23.912-12.107,37.23
			c-1.815,11.502,11.401,16.143,16.446,10.392c3.531-4.035-2.725-8.071-7.265-5.146c-2.018,1.312-3.632,4.843-3.632,4.843
			l-0.707-0.504c0.102-3.027,4.642-7.063,8.273-7.164c3.229-0.101,6.054,2.119,6.256,6.962c0.303,12.31-19.675,18.363-35.616-0.807
			C35.414,641.603,42.982,591.559,96.254,559.272z"/>
		<path fill="#456A3E" d="M96.254,559.272c-5.751,3.43-10.897,7.163-15.639,10.997c3.026,2.725,6.961,4.339,11.3,4.339
			c2.725,0,5.348-0.707,7.668-1.816C98.272,568.15,97.263,563.61,96.254,559.272z"/>
		<g>
			<path fill="#456A3E" d="M90.402,572.187c0,0-0.201,0.202-0.504,0.605s-0.808,1.009-1.312,1.715
				c-0.605,0.707-1.313,1.716-2.119,2.825c-0.808,1.11-1.715,2.32-2.623,3.733c-0.908,1.412-1.917,2.825-2.926,4.54
				c-1.01,1.614-2.019,3.33-3.027,5.146c-1.009,1.816-2.018,3.733-3.026,5.65c-0.505,1.009-1.01,2.018-1.413,2.926
				c-0.504,1.009-1.009,2.019-1.412,3.027c-0.908,2.018-1.816,4.035-2.522,6.154c-0.403,1.009-0.808,2.018-1.11,3.026
				c-0.403,1.01-0.605,2.019-1.009,3.027c-0.303,1.009-0.605,2.018-0.908,2.926c-0.303,1.009-0.504,1.917-0.706,2.825
				c-0.505,1.816-1.009,3.632-1.211,5.247c-0.303,1.613-0.605,3.127-0.807,4.54c-0.102,1.312-0.303,2.522-0.404,3.531
				c-0.201,1.917-0.302,3.026-0.302,3.026s0-1.109,0.101-3.127c0-1.01,0.101-2.221,0.101-3.532c0.101-1.312,0.303-2.926,0.505-4.54
				c0.101-1.715,0.504-3.431,0.807-5.348c0.202-0.907,0.303-1.917,0.505-2.926c0.201-1.009,0.504-2.018,0.706-3.026
				c0.303-1.009,0.505-2.119,0.808-3.128s0.604-2.119,0.907-3.128c0.605-2.118,1.413-4.237,2.119-6.356
				c0.403-1.109,0.808-2.118,1.211-3.128c0.403-1.009,0.807-2.118,1.211-3.127c0.908-2.019,1.815-4.036,2.724-5.953
				s1.816-3.733,2.725-5.448c0.908-1.716,1.815-3.33,2.623-4.843c0.808-1.514,1.715-2.825,2.422-4.036
				c0.706-1.211,1.412-2.22,1.917-3.027c0.504-0.807,1.009-1.513,1.312-1.916c0.303-0.404,0.504-0.707,0.504-0.707L90.402,572.187z"
				/>
		</g>
		<g>
			<path fill="#456A3E" d="M96.153,570.976c0,0,0,0.202-0.101,0.605s-0.101,1.009-0.303,1.816c-0.202,1.614-0.403,3.834-0.605,6.558
				c-0.303,5.449-0.403,12.915,0.808,20.18c0.303,1.815,0.605,3.632,1.009,5.348c0.403,1.715,0.908,3.531,1.412,5.146
				c1.11,3.229,2.422,6.255,3.834,8.575c0.404,0.605,0.707,1.11,1.009,1.716c0.404,0.504,0.707,1.009,1.01,1.514
				c0.605,0.907,1.312,1.614,1.815,2.32c1.11,1.211,1.716,1.917,1.716,1.917s-0.706-0.605-1.917-1.715
				c-0.605-0.605-1.312-1.313-2.019-2.119c-0.403-0.403-0.807-0.908-1.21-1.413c-0.404-0.504-0.808-1.109-1.211-1.614
				c-1.614-2.32-3.33-5.246-4.642-8.475c-0.706-1.614-1.312-3.33-1.917-5.146c-0.605-1.816-1.109-3.633-1.514-5.448
				c-1.815-7.365-2.421-15.034-2.521-20.785c-0.102-2.824,0-5.246,0.101-6.961c0-0.808,0.101-1.514,0.101-1.918
				c0-0.504,0.102-0.706,0.102-0.706L96.153,570.976z"/>
		</g>
		<ellipse fill="#456A3E" cx="84.247" cy="667.128" rx="5.751" ry="3.632"/>
	</g>
	<g id="Hojas_7">
		<path fill="#94B43B" stroke="#456A3E" stroke-width="4" stroke-miterlimit="10" d="M236.8,678.731
			c-10.896-2.623-62.05-29.259-92.521-30.269c-25.526-0.908-44.191,19.069-44.696,32.287c-0.403,9.585,4.036,14.024,10.393,14.326
			c4.035,0.202,7.264-2.32,7.466-5.852c0.101-2.724-1.816-6.558-7.87-5.852l-0.101,0.605c6.054-0.202,9.081,4.54,5.247,8.374
			c-1.413,1.412-4.642,1.514-6.356-1.312c-3.431-5.65,0.403-12.915,9.686-12.713c13.318,0.403,36.524,22.096,67.095,22.096
			C204.313,700.424,226.912,690.133,236.8,678.731z"/>
		<path fill="#456A3E" d="M220.96,685.896c0,1.513,0.303,3.026,0.706,4.338c6.154-3.431,11.401-7.365,15.033-11.502
			c-2.018-0.504-5.549-1.815-10.09-3.733C223.281,677.42,220.96,681.354,220.96,685.896z"/>
		<g>
			<path fill="#456A3E" d="M225.097,682.465c0,0-0.404,0-1.11-0.101c-0.706-0.102-1.815-0.202-3.128-0.303
				c-2.623-0.303-6.457-0.808-10.997-1.514c-2.32-0.303-4.742-0.706-7.365-1.211c-2.623-0.504-5.348-1.009-8.173-1.614
				s-5.65-1.312-8.576-2.119c-1.412-0.403-2.926-0.907-4.338-1.312c-1.413-0.504-2.926-1.009-4.339-1.513
				c-2.825-1.01-5.65-1.917-8.576-2.725c-2.825-0.807-5.751-1.514-8.475-2.119c-5.55-1.21-10.796-2.118-15.336-2.623
				c-4.541-0.504-8.273-0.605-10.998-0.403c-1.312,0.101-2.32,0.303-3.026,0.403c-0.707,0.202-1.01,0.303-1.01,0.303
				s0.303-0.101,1.01-0.303c0.706-0.201,1.715-0.403,3.026-0.605c2.623-0.403,6.457-0.403,11.099-0.201
				c4.54,0.303,9.888,0.908,15.538,1.815c2.824,0.505,5.751,1.01,8.677,1.716c2.926,0.605,5.952,1.412,8.879,2.32
				c1.412,0.403,2.926,0.808,4.338,1.312c1.413,0.403,2.926,0.808,4.339,1.11c2.926,0.605,5.751,1.211,8.576,1.715
				c2.825,0.505,5.448,0.908,8.071,1.211c2.522,0.303,5.045,0.605,7.265,0.807c4.54,0.505,8.273,0.707,10.896,0.908
				c1.312,0.102,2.32,0.102,3.027,0.202c0.706,0,1.109,0,1.109,0L225.097,682.465z"/>
		</g>
		<g>
			<path fill="#456A3E" d="M223.18,687.813c0,0-1.11,0-3.128,0.101c-1.917,0.101-4.742,0.101-8.071,0.101
				c-6.659,0-15.538-0.201-24.417-1.009c-4.439-0.403-8.879-0.908-12.915-1.514c-2.018-0.303-4.035-0.706-5.852-1.109
				s-3.632-0.808-5.246-1.312c-0.808-0.202-1.514-0.505-2.321-0.706c-0.706-0.303-1.412-0.505-2.018-0.707
				c-1.211-0.504-2.32-0.907-3.229-1.412c-0.908-0.403-1.514-0.808-2.018-1.11c-0.404-0.302-0.707-0.403-0.707-0.403
				s0.202,0.101,0.707,0.303c0.504,0.202,1.109,0.605,2.018,0.908c0.908,0.403,2.018,0.706,3.229,1.211
				c0.605,0.201,1.312,0.403,2.018,0.605c0.707,0.201,1.514,0.303,2.321,0.504c1.614,0.303,3.329,0.605,5.246,0.908
				s3.834,0.505,5.852,0.706c4.137,0.404,8.476,0.605,12.915,0.605c8.778,0.102,17.556-0.303,24.114-0.807
				c3.329-0.202,6.054-0.505,7.971-0.707c1.917-0.201,3.026-0.302,3.026-0.302L223.18,687.813z"/>
		</g>
		<circle fill="#456A3E" cx="111.993" cy="688.519" r="5.448"/>
	</g>
</g>
<g id="Hojas_Derecha">
	<g id="Hojas_1_1_">
		<path fill="#94B43B" stroke="#456A3E" stroke-width="4" stroke-miterlimit="10" d="M452.514,235.803
			c-13.419,2.22-27.746,10.594-32.993,21.188c-11.603-11.704-8.374-30.47,9.787-35.818c-28.554-34.809-34.405-95.446-12.813-120.065
			c18.867-21.491,53.676-13.621,53.676,9.283c0,22.903-30.975,24.517-32.992,11.3l0.403-0.706
			c5.348,2.421,11.502-0.605,10.997-6.255c-0.303-3.532-2.522-4.944-5.347-4.944c-4.339-0.101-6.256,2.522-6.356,8.172
			c-0.102,24.114,33.295,46.412,32.992,71.938C469.565,219.861,457.962,232.07,452.514,235.803z"/>
		<path fill="#456A3E" d="M444.947,237.619c-0.303-0.908-0.403-1.917-0.403-2.926c0-5.852,4.742-10.594,10.594-10.594
			c2.22,0,4.339,0.706,6.054,1.917c-3.128,5.146-6.457,8.172-8.677,9.686C450.092,236.207,447.469,236.812,444.947,237.619z"/>
		<g>
			<path fill="#456A3E" d="M452.917,227.227c0,0,0-0.303,0.101-0.908c0-0.605,0.102-1.514,0.202-2.624
				c0.202-2.22,0.303-5.549,0.403-9.383c0-1.009,0-2.018,0-3.027c0-1.009,0-2.119,0-3.229s-0.101-2.22-0.101-3.431
				c-0.101-1.21-0.202-2.32-0.202-3.531c-0.101-1.21-0.201-2.421-0.403-3.632c-0.202-1.211-0.303-2.522-0.605-3.733
				c-0.303-1.21-0.504-2.522-0.908-3.632c-0.201-0.605-0.303-1.211-0.504-1.816l-0.707-1.715c-1.009-2.32-2.22-4.742-3.43-7.063
				c-1.11-2.321-2.22-4.641-3.33-6.861c-2.118-4.439-4.035-8.677-5.549-12.309s-2.725-6.659-3.531-8.879
				c-0.403-1.11-0.706-1.917-0.808-2.522c-0.201-0.605-0.303-0.908-0.303-0.908s0.102,0.302,0.303,0.908
				c0.202,0.605,0.505,1.413,1.009,2.522c0.908,2.119,2.22,5.146,4.036,8.677c1.715,3.531,3.935,7.567,6.256,11.905
				c1.211,2.119,2.421,4.338,3.732,6.659c1.211,2.32,2.624,4.54,3.834,6.861l0.908,1.917c0.303,0.605,0.505,1.312,0.707,1.917
				c0.504,1.312,0.807,2.624,1.21,3.834c0.404,1.312,0.605,2.624,0.908,3.834c0.202,1.312,0.403,2.522,0.605,3.733
				c0.202,1.211,0.303,2.422,0.505,3.632c0.101,1.211,0.201,2.421,0.303,3.532c0.101,1.109,0.201,2.219,0.201,3.329
				c0.102,1.11,0.102,2.119,0.202,3.128c0.202,4.036,0.202,7.365,0.202,9.686c0,1.21,0,2.119,0,2.724s0,1.009,0,1.009
				L452.917,227.227z"/>
		</g>
		<g>
			<path fill="#456A3E" d="M449.083,230.455c0,0-0.202-0.403-0.706-1.109c-0.404-0.707-1.009-1.816-1.816-3.229
				c-1.514-2.825-3.733-6.76-6.154-11.704c-1.211-2.421-2.522-5.045-3.834-7.87c-1.312-2.825-2.623-5.852-4.036-8.979
				c-1.312-3.127-2.724-6.356-3.935-9.686c-1.312-3.33-2.522-6.76-3.733-10.19c-0.605-1.715-1.109-3.431-1.715-5.146
				c-0.505-1.715-1.009-3.43-1.514-5.146c-0.908-3.43-1.816-6.861-2.422-10.19c-0.303-1.715-0.706-3.33-0.908-4.944
				c-0.101-0.807-0.201-1.614-0.403-2.421c-0.101-0.807-0.201-1.614-0.303-2.321c-0.101-0.807-0.201-1.513-0.303-2.32
				c0-0.707-0.101-1.514-0.101-2.22c0-0.707-0.101-1.413-0.101-2.119c0-0.706,0-1.412,0-2.119c0-0.706,0-1.312,0-2.018
				c0-0.605,0.101-1.312,0.101-1.917c0.101-1.21,0.101-2.421,0.202-3.531c0.101-1.109,0.201-2.119,0.403-3.027
				c0.202-0.908,0.403-1.816,0.505-2.522c0.101-0.404,0.201-0.707,0.201-1.11c0.101-0.303,0.202-0.605,0.303-0.908
				c0.202-0.605,0.303-1.11,0.403-1.513c0.202-0.808,0.404-1.211,0.404-1.211s-0.102,0.403-0.303,1.211
				c-0.102,0.403-0.202,0.908-0.404,1.513c-0.101,0.303-0.101,0.605-0.201,0.908c-0.102,0.302-0.102,0.706-0.202,1.11
				c-0.101,0.807-0.303,1.614-0.403,2.623c-0.101,0.908-0.202,2.018-0.202,3.027c-0.101,1.11-0.101,2.22-0.101,3.531
				c0,0.605,0,1.211,0,1.917c0,0.605,0.101,1.312,0.101,2.018s0.102,1.312,0.102,2.018c0.101,0.707,0.201,1.413,0.201,2.119
				c0.102,0.706,0.202,1.413,0.202,2.22c0.101,0.706,0.201,1.513,0.403,2.22c0.101,0.807,0.202,1.513,0.403,2.32
				c0.202,0.807,0.303,1.514,0.505,2.321c0.303,1.614,0.706,3.229,1.109,4.843c0.808,3.229,1.816,6.558,2.825,9.989
				c0.605,1.715,1.11,3.33,1.716,5.045c0.605,1.715,1.21,3.329,1.917,5.044c1.312,3.33,2.623,6.659,4.035,9.888
				c1.413,3.229,2.927,6.356,4.339,9.383c1.514,3.027,2.926,5.953,4.338,8.677c1.413,2.725,2.825,5.348,4.137,7.668
				c2.624,4.742,4.944,8.576,6.559,11.2c0.808,1.312,1.514,2.32,1.917,3.027c0.403,0.706,0.706,1.11,0.706,1.11L449.083,230.455z"/>
		</g>
		<g>
			<path fill="#456A3E" d="M447.973,234.794c0,0-0.101,0-0.201-0.101s-0.303-0.202-0.605-0.303
				c-0.505-0.202-1.412-0.605-2.422-0.908c-0.504-0.101-1.109-0.303-1.614-0.505c-0.605-0.202-1.21-0.303-1.917-0.403
				c-0.706-0.202-1.312-0.202-2.018-0.303s-1.412-0.101-2.119-0.101c-0.706,0-1.412,0-2.118,0.101
				c-0.707,0.101-1.413,0.101-2.119,0.303c-0.706,0.101-1.312,0.303-1.917,0.504s-1.211,0.404-1.614,0.707
				c-0.505,0.302-1.009,0.504-1.413,0.706c-0.403,0.303-0.706,0.504-1.009,0.706c-0.504,0.404-0.907,0.605-0.907,0.605
				s0.302-0.303,0.706-0.807c0.201-0.202,0.504-0.504,0.807-0.908c0.403-0.302,0.808-0.605,1.211-1.009s1.009-0.706,1.614-1.11
				c0.605-0.403,1.211-0.706,1.917-1.009s1.413-0.605,2.119-0.807c0.706-0.303,1.514-0.404,2.32-0.605
				c0.808-0.101,1.614-0.303,2.422-0.404c0.807-0.101,1.614-0.101,2.32-0.101c0.807,0,1.514,0,2.22,0s1.312,0.101,1.917,0.101
				c1.211,0.101,2.22,0.303,2.926,0.404c0.303,0.101,0.706,0.101,0.908,0.202c0.202,0,0.303,0.101,0.303,0.101L447.973,234.794z"/>
		</g>
		<circle fill="#456A3E" cx="442.827" cy="115.839" r="5.448"/>
	</g>
	<g id="Hojas_2_1_">
		<path fill="#94B43B" stroke="#456A3E" stroke-width="4" stroke-miterlimit="10" d="M498.925,260.623
			c-35.313-35.616-12.107-97.162,16.043-98.978c-1.514,13.116,2.522,25.526,6.154,33.901c1.816,4.036,4.742,18.968,2.522,26.031
			c7.971-14.125,30.47-15.941,40.762-12.41c3.935,14.428-8.98,35.515-22.903,41.669c9.988,1.009,16.445,13.117,21.49,14.529
			c2.623,0.706,6.559,0.101,6.861-3.431c0.201-2.724-1.514-4.237-3.531-4.338c-1.413-0.101-4.742,1.21-4.843,4.036h-0.605
			c-2.119-18.968,30.772-8.778,27.039,12.612c-2.32,13.52-11.502,19.876-30.772,16.648
			C533.835,287.158,516.683,260.825,498.925,260.623z"/>
		<path fill="#456A3E" d="M493.276,254.065c1.917-2.22,4.741-3.632,7.869-3.632c5.751,0,10.393,4.641,10.393,10.392
			c0,1.211-0.202,2.321-0.605,3.431c-4.036-2.119-8.071-3.532-12.007-3.632C496.907,258.504,494.99,256.285,493.276,254.065z"/>
		<g>
			<path fill="#456A3E" d="M495.293,254.065c0,0,0-0.303-0.101-0.807c-0.102-0.505-0.202-1.312-0.303-2.22
				c-0.102-1.009-0.202-2.119-0.404-3.431c-0.101-1.312-0.201-2.825-0.403-4.54c-0.101-1.614-0.201-3.431-0.303-5.348
				c-0.101-1.917-0.201-3.834-0.201-5.953c0-1.009,0-2.119,0-3.128c0-1.11,0-2.119,0-3.229c0-2.119,0.101-4.338,0.201-6.558
				c0.102-2.22,0.303-4.338,0.505-6.558c0.303-2.119,0.504-4.238,0.807-6.255c0.404-2.018,0.707-3.935,1.11-5.852
				c0.504-1.816,0.908-3.531,1.312-5.146c0.504-1.513,1.009-3.026,1.412-4.237c0.102-0.303,0.202-0.605,0.303-0.908
				c0.102-0.303,0.202-0.605,0.403-0.807c0.202-0.504,0.505-1.009,0.605-1.413c0.808-1.715,1.211-2.724,1.211-2.724
				s-0.403,1.009-1.009,2.825c-0.202,0.404-0.303,0.908-0.505,1.513c-0.101,0.303-0.201,0.505-0.302,0.808
				c-0.102,0.302-0.202,0.605-0.202,0.908c-0.303,1.312-0.706,2.724-1.11,4.338c-0.303,1.614-0.604,3.33-0.907,5.146
				c-0.303,1.816-0.404,3.834-0.707,5.751c-0.101,2.018-0.303,4.137-0.403,6.255c0,2.119-0.101,4.237,0,6.457
				c0.101,2.119,0.101,4.339,0.202,6.458c0.101,1.11,0.101,2.119,0.201,3.128c0.102,1.009,0.202,2.018,0.303,3.027
				c0.202,2.018,0.404,3.935,0.605,5.751c0.202,1.816,0.505,3.531,0.706,5.146c0.303,1.614,0.505,3.027,0.707,4.338
				c0.201,1.312,0.403,2.421,0.605,3.33c0.201,0.908,0.302,1.614,0.403,2.119c0.101,0.504,0.201,0.707,0.201,0.707L495.293,254.065z
				"/>
		</g>
		<g>
			<path fill="#456A3E" d="M500.035,252.955c0,0,0.908-2.624,2.118-6.659c1.211-4.036,2.725-9.484,4.036-14.933
				c0.706-2.724,1.312-5.448,1.917-8.071c0.605-2.624,1.11-5.045,1.514-7.063c0.403-2.119,0.706-3.834,0.908-5.044
				c0.201-1.211,0.303-1.917,0.303-1.917s0,0.706-0.102,1.917c-0.101,1.21-0.201,3.027-0.403,5.146s-0.403,4.54-0.706,7.265
				c-0.303,2.623-0.605,5.448-1.009,8.273c-0.707,5.65-1.614,11.199-2.422,15.437c-0.706,4.238-1.312,7.063-1.312,7.063
				L500.035,252.955z"/>
		</g>
		<g>
			<path fill="#456A3E" d="M503.869,254.065c0,0,0.605-0.605,1.614-1.715s2.522-2.623,4.338-4.54
				c1.816-1.816,3.936-3.935,6.256-6.155c1.211-1.11,2.422-2.22,3.632-3.33c1.211-1.11,2.522-2.22,3.834-3.33
				c1.313-1.11,2.624-2.22,3.936-3.229c1.312-1.11,2.623-2.018,3.935-3.027s2.623-1.816,3.733-2.724
				c1.211-0.807,2.422-1.514,3.531-2.22c1.109-0.707,2.119-1.211,3.027-1.715c0.907-0.504,1.715-0.908,2.421-1.211
				c1.312-0.605,2.119-0.908,2.119-0.908s-0.706,0.403-2.019,1.11c-0.604,0.403-1.412,0.807-2.32,1.413
				c-0.807,0.605-1.816,1.21-2.825,1.917c-1.009,0.807-2.118,1.614-3.229,2.522c-1.109,0.908-2.32,1.917-3.431,2.926
				c-1.109,1.11-2.421,2.119-3.531,3.33c-1.211,1.21-2.421,2.32-3.531,3.531c-1.211,1.211-2.32,2.421-3.431,3.632
				c-1.109,1.21-2.22,2.421-3.229,3.632c-2.118,2.421-3.935,4.641-5.549,6.558c-1.614,1.917-2.926,3.632-3.834,4.742
				c-0.908,1.211-1.413,1.816-1.413,1.816L503.869,254.065z"/>
		</g>
		<g>
			<path fill="#456A3E" d="M507.804,255.982c0,0,2.119-0.707,5.146-2.018c1.514-0.605,3.33-1.413,5.247-2.32
				c0.908-0.505,1.917-0.908,2.926-1.413s2.018-1.009,2.926-1.615c1.917-1.109,3.935-2.219,5.65-3.329
				c0.908-0.605,1.715-1.11,2.522-1.614c0.807-0.505,1.614-1.009,2.22-1.615c0.706-0.504,1.312-1.009,1.815-1.413
				c0.505-0.403,1.01-0.807,1.413-1.109c0.807-0.605,1.211-1.009,1.211-1.009s-0.404,0.404-1.11,1.11
				c-0.403,0.303-0.807,0.807-1.312,1.211c-0.505,0.504-1.109,1.009-1.715,1.513c-0.605,0.605-1.312,1.11-2.119,1.715
				c-0.706,0.605-1.614,1.211-2.421,1.917c-1.716,1.312-3.532,2.623-5.449,3.834c-0.908,0.605-1.917,1.211-2.824,1.816
				c-1.01,0.605-1.918,1.109-2.825,1.715c-1.816,1.11-3.633,2.018-5.146,2.825c-3.027,1.614-5.146,2.522-5.146,2.522
				L507.804,255.982z"/>
		</g>
		<g>
			<path fill="#456A3E" d="M508.107,258.504c0,0,0.303,0,0.808-0.101c0.504,0,1.21-0.101,2.118-0.101s2.019,0,3.33,0
				s2.724,0.101,4.237,0.303c0.808,0.101,1.614,0.202,2.422,0.303c0.807,0.101,1.715,0.303,2.522,0.404
				c0.907,0.202,1.715,0.403,2.623,0.605c0.908,0.202,1.815,0.504,2.724,0.807c1.816,0.605,3.733,1.312,5.55,2.119
				c0.908,0.403,1.815,0.908,2.724,1.413l1.312,0.706l1.312,0.807c1.716,1.11,3.33,2.421,4.944,3.632
				c1.514,1.312,2.926,2.522,4.439,3.632s3.026,2.119,4.54,2.926s2.926,1.514,4.339,2.018c2.825,1.009,5.246,1.413,7.063,1.513
				c0.908,0.101,1.514,0,2.018,0c0.505,0,0.706,0,0.706,0s-0.201,0-0.706,0.101c-0.504,0-1.109,0.101-2.018,0.101
				c-1.715,0-4.339-0.202-7.265-1.11c-1.514-0.403-3.026-1.009-4.54-1.816c-1.614-0.706-3.229-1.614-4.843-2.623
				c-1.614-1.009-3.229-2.22-4.843-3.431c-1.614-1.11-3.128-2.321-4.944-3.229l-1.312-0.707l-1.312-0.605
				c-0.908-0.404-1.716-0.807-2.623-1.11c-1.816-0.707-3.633-1.211-5.348-1.715c-0.908-0.202-1.816-0.404-2.623-0.605
				c-0.908-0.101-1.716-0.303-2.522-0.403c-0.808-0.101-1.614-0.202-2.422-0.303c-0.807-0.101-1.514-0.101-2.32-0.101
				c-1.413-0.101-2.825-0.101-3.935,0c-1.211,0-2.22,0.101-3.027,0.202c-0.807,0.101-1.514,0.202-1.917,0.202
				c-0.403,0.101-0.706,0.101-0.706,0.101L508.107,258.504z"/>
		</g>
		<circle fill="#456A3E" cx="565.516" cy="262.136" r="3.733"/>
	</g>
	<g id="Hojas_3_2_">
		<path fill="#94B43B" stroke="#456A3E" stroke-width="4" stroke-miterlimit="10" d="M525.662,289.075
			c0.808,11.906-24.215,31.277-23.307,67.095c0.706,30.167,20.986,57.208,37.23,66.086c-9.081-22.096,14.528-52.566,12.41-85.357
			C550.483,314.097,542.512,299.669,525.662,289.075z"/>
		<path fill="#456A3E" d="M525.662,289.075c3.633,2.321,6.962,4.843,9.787,7.567c-1.715,2.623-4.642,4.439-7.971,4.439
			c-1.917,0-3.733-0.605-5.247-1.514C524.451,295.432,525.865,292.001,525.662,289.075z"/>
		<g>
			<path fill="#456A3E" d="M532.422,296.44c0,0,0,0.101,0.102,0.202c0.101,0.202,0.201,0.403,0.303,0.807
				c0.303,0.706,0.605,1.614,1.009,2.825c0.403,1.211,0.706,2.725,1.109,4.439c0.202,0.807,0.303,1.715,0.505,2.725
				c0.201,0.908,0.303,1.917,0.504,3.026c0.102,0.505,0.202,1.11,0.202,1.615c0.101,0.504,0.101,1.11,0.202,1.715
				c0.101,1.11,0.201,2.321,0.303,3.532c0.101,1.21,0.101,2.421,0.201,3.733c0,0.605,0.102,1.312,0.102,1.917s0,1.312,0,1.917
				c0,1.312,0,2.624,0,4.036c0,1.312-0.102,2.724-0.102,4.137c-0.101,1.413-0.101,2.724-0.201,4.137
				c-0.102,1.413-0.202,2.825-0.303,4.137c-0.202,2.825-0.505,5.549-0.808,8.273c-0.202,1.413-0.303,2.724-0.504,4.036
				c-0.202,1.312-0.404,2.624-0.605,3.935c-0.404,2.624-0.706,5.045-1.211,7.466c-0.403,2.32-0.908,4.54-1.312,6.659
				c-0.404,2.018-0.808,3.935-1.211,5.549c-0.403,1.614-0.706,3.127-1.009,4.237c-0.505,2.321-0.808,3.733-0.808,3.733
				s0.202-1.413,0.707-3.733c0.201-1.211,0.504-2.623,0.807-4.338s0.706-3.531,0.908-5.65c0.303-2.018,0.605-4.339,1.009-6.659
				c0.403-2.321,0.605-4.843,0.908-7.466c0.101-1.312,0.303-2.624,0.403-3.935c0.102-1.312,0.202-2.724,0.303-4.036
				c0.202-2.724,0.404-5.448,0.404-8.273c0-1.413,0.101-2.724,0.101-4.137s0-2.724,0-4.137c0-1.312,0-2.724-0.101-4.036
				c-0.102-1.312-0.102-2.624-0.202-3.935c0-0.605-0.101-1.312-0.101-1.917c-0.102-0.605-0.102-1.211-0.202-1.917
				c-0.101-1.211-0.202-2.421-0.403-3.632c-0.202-1.21-0.303-2.32-0.505-3.43c-0.101-0.504-0.202-1.11-0.202-1.614
				c-0.101-0.505-0.201-1.009-0.303-1.514c-0.201-1.009-0.403-2.018-0.604-2.825c-0.202-0.908-0.404-1.715-0.605-2.522
				c-0.404-1.614-0.808-2.926-1.211-4.036s-0.706-1.917-1.009-2.421c-0.102-0.202-0.202-0.404-0.303-0.605
				c-0.102-0.101-0.102-0.202-0.102-0.202L532.422,296.44z"/>
		</g>
		<g>
			<path fill="#456A3E" d="M529.194,298.862c0,0-1.211,4.439-2.724,11.199c-0.404,1.715-0.808,3.531-1.211,5.448
				s-0.808,4.036-1.211,6.155c-0.403,2.119-0.807,4.338-1.109,6.558c-0.404,2.22-0.707,4.54-1.01,6.861
				c-0.302,2.32-0.604,4.54-0.807,6.861c-0.202,2.22-0.505,4.439-0.605,6.659c-0.101,2.119-0.303,4.237-0.403,6.255
				c-0.102,2.018-0.102,3.834-0.102,5.549c0,1.715,0,3.33,0.102,4.742c0,1.412,0.101,2.623,0.201,3.632
				c0.102,2.018,0.202,3.229,0.202,3.229s-0.101-1.11-0.403-3.128c-0.102-1.009-0.303-2.22-0.404-3.632
				c-0.101-1.413-0.201-3.027-0.302-4.742c-0.102-1.715-0.102-3.632-0.202-5.65c0-2.018,0-4.137,0-6.255
				c0-2.22,0.202-4.439,0.303-6.76c0.101-2.32,0.303-4.641,0.504-6.961c0.202-2.321,0.404-4.642,0.707-6.962
				c0.303-2.321,0.504-4.541,0.807-6.659s0.605-4.237,0.908-6.255s0.605-3.834,0.908-5.549c1.109-6.861,2.119-11.502,2.119-11.502
				L529.194,298.862z"/>
		</g>
	</g>
	<g id="Hojas_4_2_">
		<path fill="#94B43B" stroke="#456A3E" stroke-width="4" stroke-miterlimit="10" d="M512.041,418.826
			c1.313,5.65,23.711,24.72,39.955,23.812s18.767-9.687,18.665-13.218c-0.101-3.531-2.522-6.255-5.649-6.659
			c-3.431-0.504-7.265,1.313-6.962,4.036c0.303,2.725,4.843,5.65,10.493,3.531l0.303,0.908
			c-16.144,6.559-19.473-16.042-1.514-16.042c13.621,0,23.509,14.528,23.509,30.672c0,16.95-13.218,37.836-37.433,36.322
			C503.768,478.96,509.52,423.468,512.041,418.826z"/>
		<path fill="#456A3E" d="M518.499,426.897v0.102c0,5.347-3.128,9.988-7.668,12.208c-1.11-10.19,0.303-18.666,1.21-20.381
			C512.446,420.541,514.866,423.568,518.499,426.897z"/>
		<g>
			<path fill="#456A3E" d="M516.986,431.942c0,0,0.101,0.303,0.303,0.808c0.101,0.303,0.202,0.605,0.303,1.009
				c0.101,0.303,0.303,0.706,0.403,1.211c0.101,0.403,0.403,0.908,0.605,1.513c0.202,0.505,0.505,1.11,0.808,1.816
				c0.302,0.605,0.706,1.312,1.109,2.018c0.403,0.707,0.808,1.413,1.312,2.119c0.908,1.514,2.119,3.027,3.33,4.54
				c1.312,1.514,2.724,3.128,4.338,4.642s3.33,3.026,5.247,4.237c1.917,1.312,3.935,2.522,6.054,3.531
				c2.118,1.009,4.338,1.816,6.658,2.321c2.22,0.504,4.541,0.807,6.761,0.706c2.22,0,4.338-0.303,6.356-0.908
				c2.018-0.505,3.732-1.312,5.347-2.119c1.614-0.908,2.927-1.815,4.137-2.724c0.303-0.202,0.605-0.404,0.808-0.605
				c0.303-0.202,0.504-0.403,0.706-0.706c0.505-0.404,0.908-0.808,1.312-1.211c0.706-0.706,1.312-1.413,1.715-1.816
				c0.404-0.403,0.605-0.605,0.605-0.605s-0.201,0.202-0.605,0.706c-0.403,0.404-0.907,1.11-1.613,1.917
				c-0.404,0.404-0.808,0.808-1.211,1.211c-0.202,0.202-0.505,0.505-0.707,0.706c-0.303,0.202-0.504,0.505-0.807,0.707
				c-1.11,1.009-2.422,2.018-4.036,3.026c-1.614,0.908-3.329,1.917-5.448,2.623c-2.018,0.707-4.237,1.211-6.558,1.413
				c-2.321,0.201-4.742,0-7.265-0.303c-2.422-0.403-4.843-1.11-7.164-2.018c-2.32-0.908-4.54-2.119-6.658-3.33
				c-2.119-1.211-4.036-2.724-5.953-4.237c-1.816-1.514-3.531-3.027-4.944-4.642c-1.513-1.614-2.825-3.127-3.935-4.641
				c-0.605-0.808-1.11-1.514-1.614-2.22c-0.505-0.706-0.908-1.413-1.312-2.119c-0.404-0.706-0.808-1.312-1.11-1.917
				s-0.605-1.109-0.807-1.715c-0.202-0.505-0.403-1.009-0.605-1.413c-0.101-0.403-0.303-0.706-0.403-1.009
				c-0.202-0.504-0.303-0.807-0.303-0.807L516.986,431.942z"/>
		</g>
		<ellipse fill="#456A3E" cx="564.002" cy="427.201" rx="5.348" ry="3.43"/>
	</g>
	<g id="Hojas_5_2_">
		<path fill="#94B43B" stroke="#456A3E" stroke-width="4" stroke-miterlimit="10" d="M514.564,480.473
			c-4.943,19.775-7.264,34.002-1.815,55.089c5.952,22.701,33.093,39.45,44.999,68.71c20.078-19.17,17.152-56.905,8.979-72.745
			C549.171,497.524,522.636,490.865,514.564,480.473z"/>
		<path fill="#456A3E" d="M514.564,480.473c2.624,3.431,7.265,6.356,12.915,10.09c-2.623,4.944-7.77,8.374-13.722,8.374
			c-1.009,0-2.019-0.101-2.926-0.303C511.638,492.883,512.949,486.931,514.564,480.473z"/>
		<g>
			<path fill="#456A3E" d="M522.031,490.563c0,0,0.201,0.202,0.706,0.706c0.505,0.505,1.109,1.211,1.917,2.119
				s1.715,2.018,2.825,3.329c1.009,1.313,2.22,2.725,3.431,4.439c1.21,1.614,2.522,3.431,3.834,5.348s2.623,4.036,4.035,6.154
				c0.605,1.11,1.312,2.22,2.019,3.33c0.706,1.109,1.312,2.32,1.917,3.431c0.605,1.21,1.211,2.421,1.917,3.531
				c0.605,1.21,1.211,2.421,1.815,3.632c0.605,1.211,1.11,2.422,1.716,3.733c0.504,1.211,1.009,2.522,1.514,3.732
				c0.504,1.211,1.009,2.422,1.412,3.733c0.403,1.211,0.808,2.422,1.211,3.633c0.403,1.21,0.807,2.421,1.109,3.531
				c0.303,1.21,0.605,2.32,0.908,3.43c0.303,1.11,0.605,2.22,0.908,3.229c0.202,1.109,0.403,2.118,0.605,3.127
				c0.403,2.019,0.807,3.834,1.009,5.448c0.202,1.615,0.403,3.027,0.505,4.238c0.303,2.32,0.403,3.632,0.403,3.632
				s-0.202-1.312-0.605-3.632c-0.202-1.11-0.505-2.522-0.706-4.137c-0.303-1.614-0.808-3.431-1.312-5.348
				c-0.303-1.009-0.505-2.018-0.808-3.026c-0.303-1.01-0.706-2.119-1.109-3.229c-0.404-1.109-0.706-2.22-1.11-3.329
				c-0.403-1.109-0.908-2.32-1.312-3.431c-0.504-1.211-0.908-2.32-1.412-3.531c-0.505-1.211-1.11-2.32-1.614-3.531
				c-0.605-1.211-1.11-2.421-1.716-3.632s-1.312-2.321-1.917-3.531c-0.605-1.211-1.21-2.321-1.917-3.531
				c-0.706-1.11-1.412-2.321-2.018-3.431c-0.706-1.11-1.412-2.22-2.119-3.33c-0.706-1.109-1.412-2.118-2.118-3.127
				c-1.514-2.019-2.825-4.036-4.238-5.751c-1.412-1.816-2.724-3.532-4.035-5.045c-1.312-1.514-2.522-2.926-3.531-4.036
				c-1.11-1.211-2.019-2.22-2.825-3.026c-0.808-0.808-1.413-1.413-1.917-1.816c-0.403-0.403-0.706-0.605-0.706-0.605
				L522.031,490.563z"/>
		</g>
		<g>
			<path fill="#456A3E" d="M518.6,494.296c0,0,0,0.303,0.101,0.706c0,0.505,0.202,1.211,0.303,2.119
				c0.102,0.908,0.303,2.118,0.605,3.43c0.202,1.313,0.605,2.825,0.908,4.439c0.403,1.614,0.808,3.33,1.412,5.146
				c0.505,1.815,1.11,3.732,1.716,5.751c0.605,2.018,1.412,4.035,2.118,6.054c0.808,2.018,1.614,4.137,2.422,6.154
				c0.908,2.018,1.716,4.137,2.623,6.154c0.908,2.018,1.816,3.936,2.725,5.852c0.908,1.918,1.815,3.733,2.724,5.449
				c0.908,1.715,1.816,3.329,2.624,4.741c0.807,1.514,1.513,2.825,2.22,4.036c0.706,1.211,1.312,2.22,1.815,3.027
				c1.009,1.715,1.614,2.623,1.614,2.623s-0.605-0.908-1.715-2.522c-0.605-0.808-1.211-1.816-2.018-2.926
				c-0.808-1.11-1.614-2.422-2.522-3.834c-0.908-1.413-1.917-2.926-2.927-4.642c-1.009-1.614-2.018-3.431-3.127-5.246
				c-1.11-1.816-2.119-3.733-3.128-5.65c-1.11-1.917-2.018-3.935-3.128-5.953c-1.009-2.018-1.917-4.035-2.926-6.054
				c-0.908-2.018-1.816-4.035-2.522-6.054c-0.808-2.018-1.514-3.935-2.22-5.751c-0.706-1.815-1.211-3.632-1.816-5.246
				c-0.504-1.614-1.009-3.128-1.312-4.54c-0.403-1.313-0.706-2.522-0.908-3.531c-0.201-1.01-0.403-1.716-0.504-2.321
				c-0.101-0.504-0.101-0.807-0.101-0.807L518.6,494.296z"/>
		</g>
	</g>
	<g id="Hojas_6_1_">
		<path fill="#94B43B" stroke="#456A3E" stroke-width="4" stroke-miterlimit="10" d="M498.118,559.272
			c-6.559,27.746-14.933,63.967-40.056,69.718c12.208,16.749,44.596,15.438,51.558-7.869c4.137,19.473,9.988,23.912,12.107,37.229
			c1.815,11.502-11.401,16.144-16.446,10.393c-3.531-4.036,2.725-8.071,7.265-5.146c2.018,1.312,3.632,4.843,3.632,4.843
			l0.707-0.505c-0.102-3.026-4.642-7.063-8.273-7.163c-3.229-0.101-6.054,2.119-6.256,6.962
			c-0.303,12.309,19.675,18.362,35.616-0.808C558.958,641.603,551.29,591.559,498.118,559.272z"/>
		<path fill="#456A3E" d="M498.118,559.272c5.751,3.43,10.896,7.163,15.639,10.997c-3.027,2.725-6.962,4.339-11.301,4.339
			c-2.724,0-5.347-0.707-7.668-1.816C495.999,568.15,497.11,563.61,498.118,559.272z"/>
		<g>
			<path fill="#456A3E" d="M507.804,569.059c0,0,0.202,0.202,0.505,0.707c0.303,0.504,0.807,1.109,1.312,1.916
				c0.605,0.808,1.211,1.816,1.917,3.027s1.514,2.522,2.421,4.036c0.808,1.513,1.716,3.127,2.624,4.843
				c0.908,1.715,1.815,3.531,2.724,5.448s1.816,3.935,2.725,5.953c0.403,1.009,0.807,2.118,1.211,3.127
				c0.403,1.01,0.807,2.119,1.21,3.128c0.707,2.119,1.514,4.238,2.119,6.356c0.303,1.11,0.605,2.119,0.908,3.128
				s0.504,2.119,0.807,3.128c0.202,1.009,0.505,2.018,0.707,3.026c0.201,1.009,0.403,2.019,0.504,2.926
				c0.303,1.917,0.706,3.733,0.808,5.348c0.201,1.716,0.303,3.229,0.504,4.54c0,1.413,0.102,2.522,0.102,3.532
				c0.101,1.917,0.101,3.127,0.101,3.127s-0.101-1.109-0.303-3.026c-0.101-1.009-0.202-2.119-0.403-3.531
				c-0.202-1.312-0.505-2.825-0.808-4.54c-0.201-1.615-0.706-3.431-1.211-5.247c-0.201-0.908-0.504-1.917-0.706-2.825
				c-0.303-0.908-0.605-1.917-0.908-2.926s-0.605-2.018-1.009-3.027c-0.403-1.009-0.807-2.018-1.109-3.026
				c-0.707-2.018-1.614-4.036-2.522-6.154c-0.404-1.009-0.908-2.019-1.413-3.027c-0.504-1.009-1.009-2.018-1.412-2.926
				c-1.009-1.917-2.019-3.834-3.027-5.65c-1.009-1.815-2.018-3.531-3.026-5.146s-2.019-3.128-2.926-4.54
				c-0.908-1.413-1.816-2.623-2.624-3.733c-0.807-1.109-1.513-2.018-2.118-2.825c-0.605-0.807-1.009-1.312-1.312-1.715
				s-0.505-0.605-0.505-0.605L507.804,569.059z"/>
		</g>
		<g>
			<path fill="#456A3E" d="M503.163,570.27c0,0,0,0.202,0.101,0.706c0,0.404,0.101,1.11,0.101,1.917
				c0.102,1.716,0.102,4.036,0.102,6.962c-0.102,5.751-0.707,13.318-2.522,20.784c-0.404,1.816-1.01,3.633-1.514,5.449
				c-0.605,1.815-1.211,3.531-1.917,5.146c-1.413,3.229-3.027,6.154-4.642,8.475c-0.403,0.605-0.807,1.11-1.21,1.614
				c-0.404,0.505-0.808,1.009-1.211,1.413c-0.706,0.908-1.514,1.513-2.019,2.118c-1.21,1.11-1.917,1.716-1.917,1.716
				s0.605-0.706,1.716-1.917c0.504-0.605,1.211-1.413,1.815-2.321c0.303-0.504,0.707-0.907,1.01-1.513
				c0.303-0.505,0.706-1.11,1.009-1.716c1.412-2.421,2.724-5.347,3.834-8.576c0.504-1.614,1.009-3.329,1.412-5.146
				c0.404-1.815,0.808-3.531,1.009-5.348c1.11-7.264,1.11-14.629,0.808-20.179c-0.202-2.724-0.403-5.045-0.605-6.558
				c-0.101-0.808-0.202-1.413-0.303-1.816s-0.101-0.605-0.101-0.605L503.163,570.27z"/>
		</g>
		<ellipse fill="#456A3E" cx="510.124" cy="667.128" rx="5.751" ry="3.632"/>
	</g>
	<g id="Hojas_7_1_">
		<path fill="#94B43B" stroke="#456A3E" stroke-width="4" stroke-miterlimit="10" d="M357.572,678.731
			c10.896-2.623,62.051-29.259,92.521-30.269c25.526-0.908,44.192,19.069,44.696,32.287c0.404,9.585-4.035,14.024-10.392,14.326
			c-4.036,0.202-7.265-2.32-7.467-5.852c-0.101-2.724,1.816-6.558,7.87-5.852l0.101,0.605c-6.054-0.202-9.08,4.54-5.246,8.374
			c1.412,1.412,4.641,1.514,6.356-1.312c3.431-5.65-0.403-12.915-9.687-12.713c-13.317,0.403-36.523,22.096-67.095,22.096
			C389.959,700.424,367.459,690.133,357.572,678.731z"/>
		<path fill="#456A3E" d="M373.311,685.896c0,1.513-0.303,3.026-0.706,4.338c-6.154-3.431-11.401-7.365-15.033-11.502
			c2.018-0.504,5.549-1.815,10.09-3.733C371.091,677.42,373.311,681.354,373.311,685.896z"/>
		<g>
			<path fill="#456A3E" d="M368.871,677.521c0,0,0.404,0,1.11,0s1.715-0.101,3.026-0.201c2.624-0.202,6.356-0.403,10.897-0.908
				c2.22-0.202,4.741-0.505,7.264-0.808c2.624-0.303,5.247-0.706,8.072-1.21c2.825-0.505,5.649-1.01,8.576-1.716
				c1.412-0.303,2.926-0.706,4.338-1.109c1.413-0.404,2.926-0.808,4.339-1.312c2.926-0.908,5.952-1.716,8.879-2.321
				c2.926-0.605,5.852-1.21,8.677-1.715c5.65-0.908,10.997-1.514,15.538-1.816c4.54-0.303,8.374-0.201,11.098,0.202
				c1.312,0.202,2.321,0.403,3.027,0.605c0.706,0.201,1.009,0.303,1.009,0.303s-0.403-0.102-1.009-0.303
				c-0.706-0.202-1.716-0.303-3.027-0.403c-2.623-0.202-6.457-0.102-10.997,0.403c-4.54,0.504-9.787,1.412-15.336,2.623
				c-2.725,0.605-5.65,1.312-8.476,2.119c-2.825,0.807-5.751,1.715-8.576,2.724c-1.412,0.505-2.926,1.009-4.338,1.514
				c-1.514,0.403-2.926,0.908-4.339,1.312c-2.926,0.808-5.852,1.514-8.576,2.119c-2.825,0.605-5.549,1.21-8.172,1.614
				c-2.624,0.504-5.045,0.908-7.366,1.211c-4.54,0.706-8.374,1.21-10.997,1.513c-1.312,0.102-2.422,0.303-3.128,0.303
				c-0.706,0.101-1.109,0.101-1.109,0.101L368.871,677.521z"/>
		</g>
		<g>
			<path fill="#456A3E" d="M371.495,682.768c0,0,1.109,0.101,3.026,0.303c1.917,0.201,4.642,0.403,7.971,0.706
				c6.559,0.505,15.336,0.908,24.114,0.808c4.439-0.102,8.777-0.303,12.914-0.605c2.019-0.202,4.036-0.404,5.853-0.707
				c1.815-0.302,3.632-0.604,5.246-0.907c0.808-0.202,1.614-0.404,2.32-0.505c0.707-0.202,1.413-0.403,2.019-0.605
				c1.312-0.403,2.421-0.807,3.229-1.211c0.908-0.303,1.614-0.706,2.018-0.908c0.505-0.201,0.706-0.302,0.706-0.302
				s-0.201,0.101-0.706,0.403c-0.403,0.303-1.109,0.706-2.018,1.109c-0.908,0.404-1.917,0.908-3.229,1.413
				c-0.605,0.201-1.312,0.504-2.019,0.706c-0.706,0.202-1.513,0.505-2.32,0.706c-1.614,0.505-3.329,0.908-5.246,1.312
				c-1.816,0.404-3.834,0.808-5.853,1.11c-4.137,0.706-8.576,1.211-12.914,1.513c-8.879,0.808-17.758,1.01-24.417,1.01
				c-3.329,0-6.154,0-8.071-0.102c-1.917-0.101-3.128-0.101-3.128-0.101L371.495,682.768z"/>
		</g>
		<circle fill="#456A3E" cx="482.278" cy="688.519" r="5.448"/>
	</g>
</g>
<g id="Espiga_I">
	<path fill="#456A3E" d="M189.481,235.904c8.476,16.546,18.161,6.255,18.867,6.054c0.403-0.101,14.125,1.917,9.888-17.758
		c-2.118,4.238-7.567,5.247-9.888,8.072s-1.412,6.659-1.412,6.659s-2.422-2.321-5.65-3.128
		C196.745,234.794,193.012,236.913,189.481,235.904z"/>
	<path fill="#456A3E" d="M185.142,220.567c4.439,15.841,15.034,8.879,15.74,8.879c0.403,0,12.309,4.339,12.208-13.318
		c-2.724,3.229-7.769,3.027-10.291,5.044c-2.522,2.018-2.522,5.448-2.522,5.448s-1.715-2.522-4.54-3.733
		C191.903,221.072,188.775,222.687,185.142,220.567z"/>
	<path fill="#456A3E" d="M185.445,208.158c1.917,17.959,25.526,14.327,23.609-3.733c-2.724,3.027-5.549,2.321-7.971,4.137
		c-2.421,1.816-3.732,5.348-3.732,5.348s-1.009-2.522-3.027-3.935C191.398,208.057,187.664,209.772,185.445,208.158z"/>
	<path fill="#456A3E" d="M187.362,194.839c-4.137,18.262,21.289,16.648,18.464-0.403c-2.32,2.623-4.137,1.614-6.154,3.33
		c-2.018,1.614-2.32,4.943-2.32,4.943s-1.917-2.32-3.633-3.531C191.297,197.362,188.775,197.866,187.362,194.839z"/>
	<path fill="#456A3E" d="M190.792,188.786c0,4.338,1.917,6.659,5.65,6.659c2.22,0,4.237-2.321,4.237-6.255
		c0-4.641-3.431-9.686-2.825-13.722C194.323,177.688,190.792,184.044,190.792,188.786z"/>
</g>
<g id="Espiga_D">
	<path fill="#456A3E" d="M404.488,235.904c-8.475,16.546-18.161,6.255-18.867,6.054c-0.403-0.101-14.125,1.917-9.888-17.758
		c2.119,4.238,7.567,5.247,9.888,8.072s1.412,6.659,1.412,6.659s2.422-2.321,5.65-3.128
		C397.122,234.794,400.956,236.913,404.488,235.904z"/>
	<path fill="#456A3E" d="M408.725,220.567c-4.439,15.841-15.033,8.879-15.739,8.879c-0.403,0-12.31,4.339-12.208-13.318
		c2.724,3.229,7.769,3.027,10.291,5.044c2.522,2.018,2.522,5.448,2.522,5.448s1.715-2.522,4.54-3.733
		C401.965,221.072,405.093,222.687,408.725,220.567z"/>
	<path fill="#456A3E" d="M408.422,208.158c-1.917,17.959-25.526,14.327-23.609-3.733c2.725,3.027,5.55,2.321,7.971,4.137
		c2.422,1.816,3.733,5.348,3.733,5.348s1.009-2.522,3.027-3.935C402.47,208.057,406.203,209.772,408.422,208.158z"/>
	<path fill="#456A3E" d="M406.505,194.839c4.137,18.262-21.288,16.648-18.463-0.403c2.32,2.623,4.137,1.614,6.154,3.33
		c2.018,1.614,2.32,4.943,2.32,4.943s1.917-2.32,3.633-3.531C402.671,197.362,405.194,197.866,406.505,194.839z"/>
	<path fill="#456A3E" d="M403.075,188.786c0,4.338-1.917,6.659-5.65,6.659c-2.22,0-4.237-2.321-4.237-6.255
		c0-4.641,3.43-9.686,2.824-13.722C399.544,177.688,403.075,184.044,403.075,188.786z"/>
</g>
<g id="Condor">
	<path d="M277.461,203.517h6.054c0,0-4.137,12.511-3.834,15.033c0.403,2.623,13.016,1.917,9.484,11.805c0,0-3.33-8.172-9.787-7.164
		c-4.137,0.706-8.576,12.915-8.576,12.915c-6.054-3.128,2.422-10.896,0.605-10.695c-3.431,0.303-7.265,8.778-7.265,8.778
		c-5.246-4.338,4.54-9.081,2.22-9.989c-3.128-1.312-7.163,4.944-7.163,4.944c-3.33-7.87,12.914-9.484,15.134-11.3
		C276.553,216.128,277.461,203.517,277.461,203.517z"/>
	<path d="M317.516,203.517h-6.054c0,0,4.137,12.511,3.834,15.033c-0.403,2.623-13.015,1.917-9.483,11.805
		c0,0,3.329-8.172,9.786-7.164c4.137,0.706,8.576,12.915,8.576,12.915c6.054-3.128-2.421-10.896-0.605-10.695
		c3.431,0.303,7.265,8.778,7.265,8.778c5.247-4.338-4.54-9.081-2.22-9.989c3.128-1.312,7.164,4.944,7.164,4.944
		c3.329-7.87-12.915-9.484-15.135-11.3C318.424,216.027,317.516,203.517,317.516,203.517z"/>
	<path d="M276.654,182.127c2.019,7.063,7.77,7.971,9.787,1.513c4.137,2.926,5.953,15.538,3.431,16.345
		c-3.531,1.109-2.825-7.265-5.247-7.466c-2.421-0.202-2.421,7.769-4.741,7.466c-3.532-0.404-1.615-8.576-2.825-9.283
		c-1.413-0.807-4.439,6.962-7.164,4.944C267.17,193.629,272.719,183.943,276.654,182.127z"/>
	<path d="M317.718,182.127c-2.018,7.063-7.769,7.971-9.787,1.513c-4.136,2.926-5.952,15.538-3.43,16.345
		c3.531,1.109,2.824-7.265,5.246-7.466c2.422-0.202,2.422,7.769,4.742,7.466c3.531-0.404,1.614-8.576,2.825-9.283
		c1.412-0.807,4.439,6.962,7.163,4.944C327.202,193.629,321.653,183.943,317.718,182.127z"/>
	<path d="M272.82,180.008c3.128,1.312,4.742-4.742,6.155-4.439c1.513,0.303-1.11,8.476,2.32,8.476c3.531,0,2.725-6.458,4.742-6.861
		c1.514-0.303,2.018,6.962,4.943,6.356c3.229-0.605,2.321-15.639-6.86-17.051C275.342,165.075,268.683,178.192,272.82,180.008z"/>
	<path d="M321.754,180.008c-3.128,1.312-4.742-4.742-6.155-4.439c-1.513,0.303,1.11,8.476-2.32,8.476
		c-3.531,0-2.724-6.458-4.742-6.861c-1.514-0.303-2.018,6.962-4.943,6.356c-3.229-0.605-2.32-15.639,6.86-17.051
		C319.232,165.075,325.891,178.192,321.754,180.008z"/>
	<path d="M279.278,140.76c2.421,11.099,8.475,12.208,10.896,3.733c2.522,10.392,12.107,9.686,12.611-1.11
		c4.237,9.383,11.301,9.383,11.401-2.623c5.953,5.348,8.071,20.481,3.128,21.289c-3.027,0.504-4.339-7.164-6.458-6.155
		c-1.312,0.605,1.514,7.668-3.632,8.172c-4.338,0.404-3.531-6.76-5.448-6.457c-1.514,0.202,0.505,9.282-4.742,9.282
		c-4.843,0-3.43-9.182-5.246-9.282c-1.312-0.101-0.101,6.356-4.54,6.356c-3.936-0.101-2.927-7.971-5.146-8.072
		c-1.412-0.101-0.604,6.155-5.146,6.356C273.425,162.452,274.233,145.401,279.278,140.76z"/>
	<path d="M272.214,127.744c2.624-0.101,5.953-3.127,6.761-6.659c1.211,10.09,9.786,11.401,10.997,1.514
		c3.834,13.116,13.419,10.493,13.621,0.101c3.935,8.677,10.796,8.374,12.309-1.211c1.11,3.33,3.431,6.659,5.448,6.356
		c1.614,7.164,1.413,12.006-2.926,12.41c-4.237,0.403-3.329-8.172-5.246-7.668s0.807,8.878-4.944,9.686
		c-4.338,0.605-3.834-7.668-4.741-7.466c-1.211,0.202-0.505,10.291-6.356,9.988c-5.448-0.303-4.137-10.19-5.448-10.392
		c-1.413-0.101-0.707,7.265-5.348,7.365c-4.339,0.101-4.339-9.383-5.65-9.383c-1.715,0-1.009,7.668-4.439,7.668
		C272.82,139.953,271.61,134,272.214,127.744z"/>
	<path d="M305.107,47.937c-0.908-0.707-1.514-0.707-2.321-1.917c-0.807-1.211-0.504-2.926-2.018-4.339
		c-1.514-1.412-12.914-1.21-14.529,1.009c-1.614,2.22-1.009,5.347,0.303,7.365c-2.32-0.605-6.355,0.202-8.172,1.917
		c-1.716,1.614-1.716,4.742,0.303,6.962c0.908-1.413,1.815-4.036,3.128-3.935c1.312,0.101,1.109,1.514,2.32,2.825
		s4.137,0.101,5.448,0.908c1.312,0.908,2.32,3.33,2.522,4.843c0.101,0.807,0.807,1.11,1.412,1.11h7.063v1.614h-8.071
		c-0.202,4.238-1.514,10.19-2.926,13.116c3.632,4.944,13.419,4.742,16.345-0.101c-1.917-3.935-2.32-12.914,0.403-16.647
		C309.344,58.631,309.041,51.064,305.107,47.937z M297.136,53.485c-2.019,0-3.531-1.614-3.531-3.531s1.614-3.531,3.531-3.531
		s3.531,1.614,3.531,3.531S299.053,53.485,297.136,53.485z"/>
	<path d="M282.001,83.451c-2.825,6.559-8.374,13.117-13.822,10.695c-6.054-2.624-0.706-23.004-12.915-29.764
		c-19.674-10.897-41.266,12.208-46.21,30.874c-2.22,8.375-4.237,19.17-4.237,29.058c2.926-0.101,6.559-1.11,7.87-6.861
		c0.908-4.036,0.504-31.378,18.867-43.688c11.502-7.668,25.426-6.155,25.426,12.41c0,15.941,4.843,20.784,12.813,21.793
		c1.312,0.202-1.413,12.007,3.733,12.915c4.54,0.807,5.751-9.585,7.163-9.181c1.312,0.403-0.504,11.098,4.036,11.3
		c4.137,0.202,4.237-9.888,5.549-9.888c1.614,0,1.816,13.218,7.365,12.612c5.65-0.707,3.936-13.419,5.55-13.621
		c2.32-0.403,1.715,11.704,6.355,11.603c5.65-0.101,3.128-13.318,5.045-13.621c1.514-0.202,1.413,11.603,6.054,10.997
		c4.843-0.605,1.917-12.712,4.237-13.318c8.879-2.119,12.713-8.172,13.318-22.701c0.605-14.731,10.896-21.693,23.307-12.713
		c9.585,6.961,18.161,23.508,20.986,45.1c0.403,3.33,3.229,6.861,6.962,7.063c0.403-11.401-2.825-26.232-6.559-34.607
		c-8.071-18.363-23.508-33.598-42.174-26.031c-14.933,6.054-6.457,28.149-14.327,30.571c-5.348,1.614-9.686-2.926-13.621-10.897
		C314.389,99.595,279.781,98.485,282.001,83.451z"/>
	<path d="M258.897,114.527c0.908-1.715,4.641-3.127,6.457,1.312c0.706,1.816,1.917,25.224,1.312,27.443
		c-0.908,3.531-3.329,5.852-5.852,6.558C257.686,143.282,257.383,117.554,258.897,114.527z"/>
	<path d="M267.573,146.712c-1.514,5.146-3.834,7.466-6.861,8.273c0.605,8.375,3.532,20.078,4.844,23.004
		c3.531-0.808,4.439-2.825,4.843-7.164C270.903,166.488,268.986,154.38,267.573,146.712z"/>
	<path d="M212.182,123.002c-2.522,7.769-5.448,9.283-9.08,9.081c-1.009,11.098,2.118,42.375,6.356,52.869
		c4.843-0.908,6.356-12.208,5.751-14.73C214.2,166.286,211.576,134.101,212.182,123.002z"/>
	<path d="M217.327,178.292c-0.303,6.659-2.825,11.502-6.961,12.31c2.521,9.081,18.665,45.604,25.324,49.539
		c1.614-2.018,1.109-6.659-1.312-10.493C230.746,223.595,218.942,193.225,217.327,178.292z"/>
	<path d="M243.561,78.508c5.448-2.018,2.623-7.164-4.642-3.431c-10.393,5.348-20.078,26.535-20.078,46.815
		c4.137,0.303,8.576-4.036,8.979-8.375C229.334,96.366,236.699,81.03,243.561,78.508z"/>
	<path d="M225.904,121.893c-2.22,5.347-3.834,6.356-7.869,6.356c-0.202,6.86,0.706,24.417,1.614,29.562
		c3.229-0.303,5.246-2.522,6.255-5.247C227.417,148.428,226.61,129.157,225.904,121.893z"/>
	<path d="M227.417,153.372c-0.706,8.475-2.018,10.292-7.87,10.19c2.22,18.06,18.061,60.133,25.628,68.003
		c2.018-0.908,3.127-8.576,1.312-12.007C240.937,209.167,228.829,167.295,227.417,153.372z"/>
	<path d="M244.771,83.653c-7.466,7.365-12.208,28.149-11.502,37.937c4.642-0.404,7.164-2.825,7.265-6.861
		c0.101-7.265,4.642-26.435,9.384-28.352C254.961,84.359,251.43,77.095,244.771,83.653z"/>
	<path d="M239.121,121.59c-1.413,4.036-2.926,6.054-7.77,5.852c-0.403,6.256,0.908,26.031,1.816,29.966
		c3.531,0,5.65-2.623,5.953-6.054C239.525,146.006,239.424,131.478,239.121,121.59z"/>
	<path d="M240.13,152.363c0.403,6.457-2.725,9.383-6.76,9.988c1.21,13.217,16.748,54.08,21.894,58.418
		c2.22-3.027,2.522-9.081,0.605-13.621C252.944,200.389,241.038,166.387,240.13,152.363z"/>
	<path d="M247.899,100.906c-0.605,6.255-0.303,10.594-2.32,15.336c3.026,0.404,5.146-1.715,6.76-3.834
		c1.614-2.22,2.725-8.374,2.22-12.612C253.852,94.449,248.605,93.137,247.899,100.906z"/>
	<path d="M252.944,114.83c-0.706,4.944-4.339,7.164-7.466,7.164c-0.808,8.273-0.202,23.812,0.504,29.764
		c3.33-0.101,6.256-4.137,6.861-7.668C253.65,139.65,253.448,122.195,252.944,114.83z"/>
	<path d="M254.255,149.639c-0.504,5.246-3.834,8.273-7.87,8.273c1.615,11.199,15.034,51.355,19.978,56.4
		c2.825-2.522,2.32-9.181,0.908-12.511C263.942,194.032,254.558,161.544,254.255,149.639z"/>
	<path d="M335.677,114.527c-0.908-1.715-4.641-3.127-6.457,1.312c-0.706,1.816-1.917,25.224-1.312,27.443
		c0.908,3.531,3.329,5.852,5.852,6.558C336.787,143.282,337.191,117.554,335.677,114.527z"/>
	<path d="M327,146.712c1.514,5.146,3.834,7.466,6.861,8.273c-0.605,8.375-3.531,20.078-4.844,23.004
		c-3.531-0.808-4.439-2.825-4.843-7.164C323.671,166.488,325.487,154.38,327,146.712z"/>
	<path d="M382.291,123.002c2.521,7.769,5.448,9.283,9.08,9.081c1.009,11.098-2.119,42.375-6.356,52.869
		c-4.843-0.908-6.356-12.208-5.751-14.73C380.373,166.286,382.997,134.101,382.291,123.002z"/>
	<path d="M377.145,178.292c0.303,6.659,2.825,11.502,6.962,12.31c-2.522,9.081-18.665,45.604-25.324,49.539
		c-1.614-2.018-1.11-6.659,1.312-10.493C363.827,223.595,375.531,193.225,377.145,178.292z"/>
	<path d="M351.013,78.508c-5.448-2.018-2.623-7.164,4.642-3.431c10.393,5.348,20.078,26.535,20.078,46.815
		c-4.137,0.303-8.576-4.036-8.979-8.375C365.139,96.366,357.874,81.03,351.013,78.508z"/>
	<path d="M368.569,121.893c2.22,5.347,3.834,6.356,7.87,6.356c0.202,6.86-0.706,24.417-1.614,29.562
		c-3.229-0.303-5.246-2.522-6.256-5.247C367.156,148.428,367.964,129.157,368.569,121.893z"/>
	<path d="M367.056,153.372c0.706,8.475,2.018,10.292,7.869,10.19c-2.22,18.06-18.06,60.133-25.627,68.003
		c-2.018-0.908-3.128-8.576-1.312-12.007C353.535,209.167,365.643,167.295,367.056,153.372z"/>
	<path d="M349.803,83.653c7.466,7.365,12.208,28.149,11.502,37.937c-4.642-0.404-7.164-2.825-7.265-6.861
		c-0.101-7.265-4.642-26.435-9.384-28.352C339.511,84.359,343.144,77.095,349.803,83.653z"/>
	<path d="M355.352,121.59c1.412,4.036,2.926,6.054,7.769,5.852c0.404,6.256-0.907,26.031-1.815,29.966
		c-3.531,0-5.65-2.623-5.953-6.054C354.948,146.006,355.049,131.478,355.352,121.59z"/>
	<path d="M354.343,152.363c-0.403,6.457,2.724,9.383,6.76,9.988c-1.211,13.217-16.748,54.08-21.895,58.418
		c-2.22-3.027-2.522-9.081-0.604-13.621C341.53,200.389,353.435,166.387,354.343,152.363z"/>
	<path d="M346.675,100.906c0.605,6.255,0.303,10.594,2.32,15.336c-3.026,0.404-5.146-1.715-6.76-3.834
		c-1.614-2.22-2.725-8.374-2.22-12.612C340.621,94.449,345.969,93.137,346.675,100.906z"/>
	<path d="M341.53,114.83c0.706,4.944,4.338,7.164,7.466,7.164c0.808,8.273,0.202,23.812-0.505,29.764
		c-3.329-0.101-6.255-4.137-6.86-7.668C340.823,139.65,341.025,122.195,341.53,114.83z"/>
	<path d="M340.218,149.639c0.504,5.246,3.834,8.273,7.869,8.273c-1.614,11.199-15.033,51.355-19.977,56.4
		c-2.825-2.522-2.321-9.181-0.908-12.511C330.633,194.032,339.915,161.544,340.218,149.639z"/>
	<path d="M293.605,281.206c1.917,2.522,4.741,2.321,6.658,0.303c3.027-3.128-1.009-14.832-1.715-14.832
		c-0.303,0-1.312,4.338-1.614,4.338c-0.202,0-0.908-4.338-1.312-4.338C295.017,266.677,290.78,277.372,293.605,281.206z"/>
	<path d="M289.871,273.033c-2.623,0.605-4.642-1.11-4.439-3.632c0.403-5.247,6.76-8.879,7.163-8.576
		c0.102,0.101-1.412,3.229-1.109,3.43c0.303,0.202,2.926-2.119,3.128-2.119C295.117,262.036,293.403,272.125,289.871,273.033z"/>
	<path d="M283.918,266.374c-2.018,0.504-3.531-1.413-2.926-3.027c1.009-2.825,7.971-5.146,7.971-5.146
		S286.743,265.668,283.918,266.374z"/>
	<path d="M303.795,273.033c2.623,0.605,4.641-1.11,4.438-3.632c-0.403-5.247-6.76-8.879-7.163-8.576
		c-0.101,0.101,1.412,3.229,1.109,3.43c-0.302,0.202-2.926-2.119-3.127-2.119C298.548,262.036,300.263,272.125,303.795,273.033z"/>
	<path d="M309.747,266.374c2.018,0.504,3.531-1.413,2.926-3.027c-1.009-2.825-7.971-5.146-7.971-5.146
		S307.023,265.668,309.747,266.374z"/>
</g>
<path id="Decoracion" fill="#456A3E" d="M311.765,751.174c-5.649,1.11-10.795,3.531-14.831,6.861
	c-4.54-3.733-8.576-6.154-17.455-7.164c-18.362-2.118-32.892,5.55-32.892,18.666c0,12.41,9.585,15.639,16.95,15.639
	c8.375,0,10.998-4.338,10.998-8.273c0-4.035-3.229-7.265-7.265-7.265s-7.265,3.229-7.265,7.265c0,1.11,0.202,2.018,0.605,3.027
	c-10.594-1.01-11.704-20.583,4.742-23.408c9.484-1.614,21.49-0.201,27.544,4.944c-12.208,8.071-16.143,24.618-9.08,33.497
	c6.255,7.769,19.775,8.071,25.93,0c8.677-11.502-0.505-27.746-8.576-33.396c4.439-4.237,20.078-8.273,28.957-4.943
	c14.933,5.649,13.52,21.894,3.026,22.701c0.303-0.707,0.404-1.514,0.404-2.422c0-4.035-3.229-7.265-7.265-7.265
	s-7.265,3.229-7.265,7.265c0,4.036,2.623,7.77,12.41,7.77c10.594,0,15.437-5.752,15.235-16.043
	C346.372,756.521,329.926,747.643,311.765,751.174z M307.528,783.662c0,6.458-3.329,10.998-10.997,10.998
	c-6.155,0-10.09-3.834-10.09-11.805c0-8.778,10.393-17.657,10.393-17.657S307.528,773.674,307.528,783.662z"/>
<g id="Pancarta">
	<path fill="#FFFFFF" d="M491.359,725.446c-5.045-6.861-13.722-13.521-24.014-13.521c-7.769,0-15.941,4.642-15.941,11.906
		c0,9.383,4.137,13.217,11.199,13.217c11.2,0,19.574-6.76,28.654-11.3v-0.303H491.359z"/>
	<path fill="#FFFFFF" d="M128.238,737.352c9.988,0,15.235-5.246,15.235-12.713c0-6.558-8.979-12.713-15.538-12.713
		c-12.007,0-21.087,8.072-26.132,13.722l0,0C113.002,730.289,122.89,737.352,128.238,737.352z"/>
	<path fill="#FFFFFF" d="M507.3,721.713c-17.556,0-27.746,15.437-44.596,15.437c-1.009,0-1.816-0.101-2.725-0.201v5.348
		c-0.303-0.102-0.504-0.202-0.807-0.303c-0.404-0.202-0.808-0.303-1.312-0.505c-0.404-0.202-0.908-0.303-1.313-0.505
		c-0.403-0.201-0.907-0.302-1.312-0.504c-0.303-0.101-0.504-0.202-0.807-0.303c-1.11-0.403-2.32-0.908-3.431-1.413
		c-0.202-0.101-0.505-0.201-0.706-0.302c-0.605-0.303-1.312-0.505-1.917-0.808c-0.202-0.101-0.403-0.202-0.605-0.202
		c-0.706-0.303-1.413-0.604-2.119-0.907c-0.101,0-0.201-0.102-0.303-0.102c-40.459-17.051-89.796-43.99-148.013-43.99
		c-58.519,0-112.094,29.765-153.864,46.613c-0.202,0.102-0.303,0.102-0.505,0.202c-0.706,0.303-1.412,0.605-2.118,0.808
		c-0.303,0.101-0.605,0.201-0.908,0.403c-0.605,0.202-1.312,0.505-1.917,0.706c-0.404,0.101-0.808,0.303-1.11,0.403
		c-0.303,0.102-0.504,0.202-0.807,0.303v-5.852c-3.027,0.908-4.642,1.312-7.668,1.312c-7.971,0-25.225-15.538-43.184-15.538
		c-6.558,0-15.841,5.853-15.841,13.521v39.854c0,9.08,11.301,21.188,32.488,21.188c0.303,0,0.505,0,0.808,0l0,0h0.101
		c0.908,0,1.816,0,2.725-0.101c0.706,0,1.412-0.101,2.118-0.101c0.102,0,0.303,0,0.404,0c35.515-2.825,75.771-30.067,123.798-45.907
		l0,0c3.733-1.211,7.567-2.422,11.401-3.431c0.101,0,0.201,0,0.201-0.101c1.11-0.303,2.321-0.605,3.431-0.908
		c0.202-0.102,0.505-0.102,0.706-0.202c1.009-0.303,2.019-0.504,3.027-0.807c0.303-0.102,0.605-0.102,0.908-0.202
		c0.907-0.202,1.917-0.505,2.926-0.706c0.303-0.102,0.605-0.102,1.009-0.202c1.009-0.202,1.917-0.403,2.926-0.605
		c0.303-0.101,0.605-0.101,0.908-0.201c1.109-0.202,2.22-0.404,3.329-0.605c0.202,0,0.303-0.102,0.505-0.102
		c2.623-0.504,5.246-0.907,7.87-1.312c0.303,0,0.706-0.101,1.009-0.101c0.908-0.101,1.917-0.303,2.825-0.403
		c0.504-0.102,0.908-0.102,1.412-0.202c0.808-0.101,1.716-0.202,2.522-0.303c0.505,0,1.009-0.101,1.514-0.101
		c0.807-0.102,1.614-0.102,2.421-0.202c0.505,0,1.01-0.101,1.514-0.101c0.808-0.101,1.715-0.101,2.522-0.202
		c0.505,0,1.009-0.101,1.514-0.101c0.908,0,1.815-0.101,2.724-0.101c0.404,0,0.908,0,1.312,0c1.313,0,2.725-0.102,4.036-0.102
		c1.211,0,2.522,0,3.733,0c0.403,0,0.807,0,1.211,0c0.907,0,1.715,0.102,2.623,0.102c0.403,0,0.908,0,1.312,0.101
		c0.807,0,1.715,0.101,2.522,0.202c0.403,0,0.807,0.101,1.21,0.101c1.01,0.101,2.019,0.201,2.927,0.303c0.201,0,0.504,0,0.706,0.101
		c1.211,0.101,2.522,0.303,3.733,0.403c0.201,0,0.403,0,0.604,0.102c1.01,0.101,2.119,0.303,3.128,0.403
		c0.303,0,0.706,0.101,1.009,0.101c0.908,0.102,1.816,0.303,2.825,0.404c0.303,0.101,0.706,0.101,1.009,0.201
		c1.01,0.202,2.019,0.303,3.027,0.505c0.202,0,0.403,0.101,0.605,0.101c2.522,0.505,5.045,1.009,7.567,1.614
		c0.101,0,0.201,0,0.302,0.101c1.11,0.303,2.221,0.505,3.431,0.808c0.202,0,0.404,0.101,0.605,0.101
		c1.11,0.303,2.22,0.605,3.33,0.808c0.101,0,0.201,0.101,0.403,0.101c5.045,1.312,10.09,2.825,15.033,4.439
		c37.028,12.107,70.828,30.975,100.491,40.257l0,0h0.101c1.211,0.404,2.422,0.706,3.633,1.11c0.908,0.201,1.715,0.504,2.522,0.706
		c0.303,0.101,0.605,0.202,0.908,0.202c8.475,2.22,16.445,3.632,24.215,3.632c23.71,0,33.194-12.612,33.194-19.978V734.93
		C524.654,728.069,516.783,721.713,507.3,721.713z"/>
	<path fill="none" stroke="#000000" stroke-width="5" stroke-miterlimit="10" d="M102.611,725.647
		c5.146-5.649,13.822-13.722,25.829-13.722c6.558,0,15.234,6.155,15.234,12.713c0,7.467-5.044,12.713-15.033,12.713
		c-7.971,0-24.921-15.538-42.88-15.538c-6.559,0-15.538,5.853-15.538,13.521v39.854c0,9.08,11.099,21.188,32.286,21.188
		c51.658,0,113.104-57.409,194.324-57.409c76.982,0,144.077,57.106,195.029,57.106c23.71,0,33.396-12.611,33.396-19.977v-41.064
		c0-7.063-8.071-13.318-17.556-13.318c-17.556,0-27.848,15.437-44.696,15.437c-7.164,0-11.401-3.834-11.401-13.217
		c0-7.265,8.273-11.905,16.042-11.905c10.292,0,18.969,6.457,24.215,13.317"/>
	<path fill="none" stroke="#000000" stroke-width="5" stroke-miterlimit="10" d="M70.122,739.269c0,0,10.594,11.099,29.764,11.099
		c43.688,0,115.727-58.015,197.553-58.015c85.054,0,151.14,57.712,198.46,57.712c20.684,0,29.058-11.401,29.058-11.401"/>
</g>
<g id="Libertad">
	<path d="M277.663,255.881c0,0,1.412-17.959-15.337-16.95c-11.603,0.706-23.811,12.511-53.474,13.318
		c-15.033,0.404-18.867-6.659-18.867-6.659s-1.211,23.912,19.573,25.224c21.188,1.412,39.349-5.953,45.504-9.182
		C269.39,254.065,277.663,255.881,277.663,255.881z"/>
	<g>
		<polygon fill="#FFFFFF" points="242.955,249.222 251.027,246.8 251.027,249.222 248.907,249.524 248.907,259.109 245.376,260.219 
			245.376,250.533 242.955,251.644 		"/>
		<polygon fill="#FFFFFF" points="226.408,253.459 232.865,252.148 232.865,254.267 229.637,254.569 229.637,257.192 
			232.865,256.486 232.865,258.605 229.637,258.807 229.637,262.036 233.168,261.229 233.168,263.347 226.206,264.76 
			226.206,253.459 		"/>
		<path fill="#FFFFFF" d="M252.641,246.296l-2.421,12.813l2.623-1.11l0.303-2.119l2.421-1.11l0.303,1.614l3.431-1.11l-2.623-10.695
			L252.641,246.296z M253.65,253.459l0.505-6.155l1.109,5.65L253.65,253.459z"/>
		<rect x="210.971" y="254.872" fill="#FFFFFF" width="3.431" height="10.896"/>
		<path fill="#FFFFFF" d="M262.731,243.37l-3.431,0.807v11.199l3.431-1.11c4.035-1.312,5.649-3.229,5.649-6.962
			C268.38,244.177,266.262,242.563,262.731,243.37z M262.326,252.753v-7.971c2.019,0,2.119,0,2.119,3.431
			C264.446,251.139,264.345,251.946,262.326,252.753z"/>
		<path fill="#FFFFFF" d="M241.442,256.486c0.808-0.303,1.614-1.614,1.614-2.624c0-2.119-1.917-3.834-4.54-3.027l-3.531,1.211h0.201
			v11.401l3.027-1.11v-4.54l2.22,3.733l3.733-1.11L241.442,256.486z M238.113,256.486v-4.036c1.009-0.504,1.312,0.505,1.312,1.615
			C239.424,255.376,239.121,255.881,238.113,256.486z"/>
		<path fill="#FFFFFF" d="M222.473,259.614c1.313,0,2.422-1.312,2.422-2.624c0-2.119-1.715-2.624-4.339-2.421l-3.531,0.303v11.199
			l4.339-0.303c2.623-0.303,3.935-1.614,3.935-3.733C225.298,259.917,223.785,259.614,222.473,259.614z M219.951,264.76v-4.036
			c1.009,0,1.614,0.808,1.614,2.119S220.96,264.961,219.951,264.76z M219.951,259.614v-3.431c1.009,0,1.614,0.504,1.614,1.614
			C221.566,258.807,220.96,259.412,219.951,259.614z"/>
		<path fill="#FFFFFF" d="M203.505,254.267l3.431,0.303v9.383h2.623v2.119c-2.119,0-4.843-0.807-6.154-1.312v-10.493H203.505z"/>
	</g>
</g>
<g id="Y">
	<path d="M308.536,255.376c-4.137-1.413-15.537-1.715-21.894,0c-3.33-2.624-6.458-18.767,1.412-21.491
		c6.457-2.22,11.099-2.32,18.968,0.202C313.783,236.207,312.37,249.323,308.536,255.376z"/>
	<polygon fill="#FFFFFF" points="299.961,237.417 302.18,237.417 299.456,244.984 299.456,248.818 295.824,248.818 295.824,244.984 
		293.1,237.417 296.631,237.417 298.346,242.765 	"/>
</g>
<g id="Orden">
	<path d="M316.204,255.881c0,0-1.412-17.959,15.336-16.95c11.604,0.706,23.812,12.511,53.475,13.318
		c15.033,0.404,18.867-6.659,18.867-6.659s1.211,23.912-19.573,25.224c-21.188,1.412-39.35-5.953-45.504-9.182
		C324.478,254.065,316.204,255.881,316.204,255.881z"/>
	<g>
		<polygon fill="#FFFFFF" points="365.24,264.255 358.278,262.641 358.278,251.341 365.037,252.955 365.037,255.074 
			361.809,254.065 361.809,257.293 364.432,257.495 364.432,259.715 361.809,258.908 361.809,261.531 365.24,262.338 		"/>
		<polygon fill="#FFFFFF" points="376.539,265.87 372.504,265.567 369.276,256.688 369.578,265.365 367.459,265.063 
			367.459,253.762 371.999,254.569 374.724,263.146 374.421,254.872 376.539,254.872 		"/>
		<path fill="#FFFFFF" d="M351.72,248.919l-3.633-1.312v12.107l3.33,1.11c2.724,0.504,5.649-0.504,5.952-4.338
			C357.369,252.955,355.755,250.231,351.72,248.919z M351.115,258.908v-8.375c1.009,0.505,2.421,1.312,2.421,5.146
			C353.535,258.605,352.123,259.109,351.115,258.908z"/>
		<path fill="#FFFFFF" d="M344.052,252.652c1.312-0.303,2.118-1.312,2.118-2.724c0-2.119-1.211-3.531-4.742-4.541l-3.43-1.11v11.805
			l3.026,1.11v-4.54l1.715,5.146l3.834,1.312L344.052,252.652z M342.639,250.029c0,1.312-0.605,1.917-1.614,1.615v-4.541
			C342.033,247.607,342.942,248.616,342.639,250.029z"/>
		<path fill="#FFFFFF" d="M331.036,242.159c-2.725-0.303-4.843,1.917-4.843,5.65c0,2.926,1.312,5.347,4.54,6.154
			c2.724,0.807,5.146-1.11,5.146-4.54C335.879,245.993,334.87,242.966,331.036,242.159z M331.036,252.955
			c-1.312-0.505-1.312-2.422-1.312-4.541c0-2.926,0-4.843,1.312-4.54s1.312,2.724,1.312,5.146S332.448,253.258,331.036,252.955z"/>
	</g>
</g>
<g id="Inter_Aulas_Academiae_Quaere_Verum">
	<path d="M208.751,741.388c0,2.22-2.421,2.724-5.146,2.22l0.808,3.834c4.036,1.312,8.979-1.312,8.979-6.256
		c0-6.256-6.559-7.365-6.559-10.896c0-2.725,2.422-3.229,5.146-2.422l-0.808-3.834c-4.843-0.807-8.677,2.22-8.677,6.256
		C202.597,736.443,208.751,737.251,208.751,741.388z"/>
	<path d="M236.196,732.912l3.834-1.109l0.807,4.035l3.531-1.109l-3.531-21.49l-5.953,1.614l-3.834,23.307l4.642-1.312
		L236.196,732.912z M237.305,722.621l0.303-4.642l0.807-0.303l0.303,4.642l0.808,6.256l-2.725,0.807L237.305,722.621z"/>
	<path d="M221.868,733.518c1.614,0,2.724-1.109,2.724-2.725c0-1.613-1.109-2.724-2.724-2.724s-2.725,1.109-2.725,2.724
		C219.144,732.408,220.153,733.518,221.868,733.518z"/>
	<path d="M121.175,778.013c-1.312,0.807-3.834,1.312-4.843,1.614v-7.365l4.035-0.808v-3.531l-4.035,1.312v-6.256l4.843-0.807v-3.531
		c-2.725,0.807-5.65,1.312-8.979,2.22v22.298c2.421-0.303,6.558-1.312,8.979-2.22V778.013z"/>
	<path d="M193.617,748.45l4.642-1.614l0.807,4.035l3.531-1.312l-4.843-20.885l-5.65,2.22l-2.724,24.416l4.035-1.614L193.617,748.45z
		 M194.727,738.36v-5.146l0.808-0.303l0.808,5.146l1.312,5.146l-3.531,1.313L194.727,738.36z"/>
	<polygon points="94.236,769.335 95.649,777.71 95.043,777.71 93.732,771.454 90.704,763.08 87.173,762.777 87.173,783.158 
		90.704,783.764 90.704,777.205 89.393,768.831 90.2,768.831 91.512,774.985 94.236,784.57 97.767,784.772 97.767,763.08 
		94.236,763.08 	"/>
	<path d="M126.825,770.646l1.312-0.302l0.807,2.724l3.229,4.843l4.036-1.312l-5.953-7.567c2.22-1.312,3.531-3.834,3.531-6.558
		c0-3.531-2.724-5.953-7.566-4.642l-2.725,0.808v22.298l3.531-1.11v-9.181L126.825,770.646L126.825,770.646z M126.825,760.658
		c2.219-0.807,3.531,0.808,3.531,2.725c0,1.312-0.808,3.531-3.531,4.035V760.658z"/>
	<path d="M256.072,732.408v-3.229c-3.531,1.312-6.559-0.808-6.559-7.063c0-5.649,1.614-8.374,5.953-8.374v-3.531
		c-5.65-0.807-9.787,4.036-9.787,11.905C245.679,732.711,251.127,734.628,256.072,732.408z"/>
	<path d="M142.262,766.309c1.614,0,2.724-1.11,2.724-2.725s-1.109-2.724-2.724-2.724s-2.725,1.109-2.725,2.724
		C139.336,765.3,140.446,766.309,142.262,766.309z"/>
	<polygon points="187.664,751.981 183.528,754.101 183.528,734.022 179.996,735.435 179.996,759.044 187.664,755.715 	"/>
	<path d="M168.596,763.887c3.531,0,7.566-3.531,7.566-10.594v-16.547l-4.035,1.614v16.85c0,2.725-1.313,4.036-2.725,4.036
		c-0.807,0-1.312-0.808-1.312-2.22v-16.244l-3.531,1.312v16.85C164.56,761.769,165.871,763.887,168.596,763.887z"/>
	<path d="M154.773,764.492l4.036-1.614l0.807,4.843l3.531-1.312l-3.531-21.692l-6.255,2.725l-3.531,24.113l4.035-1.614
		L154.773,764.492z M156.186,749.56l0.807-0.303l0.808,5.146l0.807,4.843l-3.531,1.312L156.186,749.56z"/>
	<path d="M102.711,784.772l4.036-0.303v-18.464c0.807,0,3.834-0.303,3.834-0.303v-3.834c-3.229,0.808-8.98,1.312-11.704,1.312v3.531
		l3.531-0.303v18.161h0.303V784.772z"/>
	<path d="M438.187,760.355c1.614,0,2.724-1.109,2.724-2.724s-1.109-2.725-2.724-2.725s-2.725,1.11-2.725,2.725
		S436.573,760.355,438.187,760.355z"/>
	<polygon points="430.317,762.575 424.566,760.658 424.566,753.596 429.51,755.513 429.51,751.981 424.566,750.064 424.566,744.313 
		430.317,746.836 430.317,743.305 421.034,738.966 421.034,762.777 430.317,766.309 	"/>
	<polygon points="454.734,776.398 458.265,755.21 454.734,753.596 452.514,766.309 452.312,772.362 451.202,771.757 
		451.202,765.804 449.285,751.679 445.451,749.762 448.478,773.977 	"/>
	<path d="M411.247,749.762h1.312l0.303,2.22l2.725,8.374l4.843,2.22l-5.146-13.62c2.22-1.11,2.725-4.036,2.725-5.65
		c0-3.531-1.313-6.256-7.063-8.374l-3.531-1.312v23.811l3.531,1.312v-8.979H411.247L411.247,749.762z M411.247,738.663
		c2.22,0.808,3.531,1.614,3.531,4.642c0,2.724-2.22,3.834-3.531,3.229V738.663z"/>
	<polygon points="468.556,777.205 463.108,775.591 463.108,769.032 467.244,770.445 467.244,766.914 463.108,765.804 
		463.108,760.053 468.556,761.97 468.556,758.438 459.576,755.513 459.576,777.71 468.556,781.039 	"/>
	<path d="M489.744,785.882c3.531,0,5.952-2.724,5.952-7.566v-14.933h-3.834v15.739c0,2.22-1.312,2.725-2.22,2.725
		c-1.312,0-2.22-1.11-2.22-3.531v-15.438l-4.035-0.807v16.042C483.186,783.764,486.212,785.882,489.744,785.882z"/>
	<polygon points="501.952,776.701 500.842,768.226 501.448,768.226 504.373,780.232 507.098,779.627 509.52,766.914 
		510.326,766.611 509.318,774.783 509.318,781.544 512.849,779.93 512.849,760.961 508.409,761.769 506.29,770.646 505.988,775.591 
		505.181,775.591 504.979,771.252 502.255,762.777 498.421,763.08 498.421,784.57 501.952,783.965 	"/>
	<path d="M390.363,749.762l1.312-4.843l4.036,1.614v5.146l9.786,4.036v-4.036l-5.649-2.22v-6.154l4.035,1.614v-3.531l-4.035-1.614
		v-5.65l5.649,2.422v-3.834l-12.208-4.844l-6.256,20.583L390.363,749.762z M394.197,736.242l1.109-4.642l0.808,0.303v11.099
		l-3.229-1.312L394.197,736.242z"/>
	<g>
		<path d="M474.307,774.985h1.312l0.303,1.614l2.422,6.559l4.035,1.109l-4.035-10.594c1.312-0.807,2.724-3.229,2.724-5.65
			c0-4.035-2.22-7.365-6.255-8.374l-4.036-1.109v22.802l3.531,0.808V774.985L474.307,774.985z M474.307,763.887
			c2.22,0,3.531,1.614,3.531,3.834c0,2.725-1.312,4.036-3.531,4.036V763.887z"/>
	</g>
	<path d="M80.413,780.232c1.109,0.807,2.22,1.109,4.036,1.614v-19.775l-4.036-1.11V780.232z"/>
	<polygon points="295.925,724.033 291.082,724.235 291.082,717.173 295.42,717.173 295.42,713.944 291.082,714.247 291.082,708.294 
		295.925,707.991 295.925,704.46 287.551,704.763 287.551,727.767 295.925,727.564 	"/>
	<polygon points="302.988,720.199 302.18,710.413 302.988,710.413 304.299,717.173 305.712,722.924 308.637,722.924 310.05,717.173 
		311.362,711.018 311.967,711.018 311.362,720.704 311.362,728.069 314.893,728.574 314.893,705.771 310.555,705.569 
		307.83,713.944 307.023,719.393 306.822,719.393 306.519,713.944 303.492,704.763 299.456,704.46 299.456,727.564 302.988,727.564 
			"/>
	<path d="M262.025,726.152l3.834-1.109l0.807,4.843l4.036-0.808l-4.036-21.692l-6.256,1.312l-2.724,23.105l3.834-1.11
		L262.025,726.152z M263.134,711.018h0.808l1.312,10.595l-2.725,0.807L263.134,711.018z"/>
	<path d="M284.826,716.668c0-8.374-3.834-11.099-9.484-10.594l-2.421,0.303v22.298l2.724-0.303
		C280.488,727.767,284.826,725.043,284.826,716.668z M276.351,709.605c2.725-0.807,4.844,2.22,4.844,7.567
		c0,4.035-2.22,7.567-4.844,7.567V709.605z"/>
	<polygon points="321.149,706.882 317.617,706.074 317.617,728.877 321.149,729.18 	"/>
	<path d="M381.181,746.836c3.229,1.109,6.256-1.312,6.256-4.843v-16.547l-3.531-1.11v16.85c0,1.312-0.808,2.422-2.22,2.22
		c-1.614-0.303-2.725-2.22-2.725-4.843v-15.739l-3.531-1.312v16.546C375.733,743.305,377.65,745.726,381.181,746.836z"/>
	<path d="M366.45,741.085h0.807l6.256,2.22v-4.036l-2.725-0.807l-2.22,0.807c2.725-1.312,3.532-4.036,3.532-8.374
		c0-8.374-2.22-13.318-7.063-13.318c-4.035,0-6.255,4.843-6.255,11.099C358.883,736.242,361.103,741.085,366.45,741.085z
		 M365.442,721.31c2.421,0,3.229,3.834,3.229,8.172c0,4.844-0.808,8.375-2.725,8.375c-2.724,0-3.531-4.036-3.531-8.375
		C362.414,724.235,363.02,721.31,365.442,721.31z"/>
	<path d="M349.096,726.959c1.614,0,2.725-1.109,2.725-2.724s-1.11-2.725-2.725-2.725s-2.724,1.11-2.724,2.725
		C346.372,726.152,347.179,726.959,349.096,726.959z"/>
	<path d="M327.706,725.647l3.834,0.808v4.641l8.979,2.22v-3.531l-5.649-1.109v-6.76l4.843,1.109v-3.531l-4.843-0.807v-5.65
		l5.649,1.312v-3.33c-2.724-0.807-8.374-2.219-11.098-2.421l-7.063,20.885l3.834,0.808L327.706,725.647z M330.633,716.365
		l1.109-4.035h0.303l-0.303,4.035v6.559l-3.229-0.303L330.633,716.365z"/>
</g>
</svg>
